<svg width="48" height="47" viewBox="0 0 48 47" fill="none" xmlns="http://www.w3.org/2000/svg">
<g clip-path="url(#clip0_687_2865)">
<path d="M48 23.4965C48 10.6587 37.2548 0.251709 24 0.251709C10.7452 0.251709 0 10.6587 0 23.4965C0 35.0984 8.77641 44.715 20.25 46.4588V30.2157H14.1562V23.4965H20.25V18.3754C20.25 12.5496 23.8331 9.33169 29.3152 9.33169C31.9402 9.33169 34.6875 9.78569 34.6875 9.78569V15.5061H31.6613C28.68 15.5061 27.75 17.298 27.75 19.1381V23.4965H34.4062L33.3422 30.2157H27.75V46.4588C39.2236 44.715 48 35.0984 48 23.4965Z" fill="#585858"/>
</g>
<defs>
<clipPath id="clip0_687_2865">
<rect width="48" height="46.4895" fill="white" transform="translate(0 0.251709)"/>
</clipPath>
</defs>
</svg>
