<svg width="48" height="47" viewBox="0 0 48 47" fill="none" xmlns="http://www.w3.org/2000/svg">
<g clip-path="url(#clip0_687_2863)">
<path d="M24 19.27V28.2721H36.9163C36.3492 31.1671 34.6471 33.6185 32.0944 35.2667L39.8835 41.1202C44.4217 37.0631 47.0399 31.1039 47.0399 24.0249C47.0399 22.3766 46.8872 20.7916 46.6035 19.2703L24 19.27Z" fill="#585858"/>
<path d="M10.5492 27.9208L8.7925 29.2232L2.57422 33.9144C6.5233 41.5005 14.6172 46.7412 23.999 46.7412C30.4788 46.7412 35.9115 44.6703 39.8825 41.1203L32.0934 35.2668C29.9552 36.6615 27.2279 37.5068 23.999 37.5068C17.759 37.5068 12.4574 33.4285 10.559 27.9342L10.5492 27.9208Z" fill="#585858"/>
<path d="M2.57436 13.0786C0.938084 16.206 0 19.735 0 23.4963C0 27.2577 0.938084 30.7867 2.57436 33.9141C2.57436 33.9351 10.5599 27.9127 10.5599 27.9127C10.08 26.518 9.79624 25.0389 9.79624 23.4961C9.79624 21.9533 10.08 20.4742 10.5599 19.0795L2.57436 13.0786Z" fill="#585858"/>
<path d="M23.9995 9.50734C27.5341 9.50734 30.6758 10.6907 33.1849 12.9729L40.0576 6.31656C35.8903 2.5552 30.4796 0.251709 23.9995 0.251709C14.6177 0.251709 6.5233 5.4712 2.57422 13.0786L10.5596 19.08C12.4576 13.5857 17.7595 9.50734 23.9995 9.50734Z" fill="#585858"/>
</g>
<defs>
<clipPath id="clip0_687_2863">
<rect width="48" height="46.4895" fill="white" transform="translate(0 0.251709)"/>
</clipPath>
</defs>
</svg>
