<svg width="48" height="47" viewBox="0 0 48 47" fill="none" xmlns="http://www.w3.org/2000/svg">
<path d="M47.5219 14.1987C47.5219 14.1987 47.0531 10.9935 45.6094 9.58607C43.7812 7.73375 41.7375 7.72467 40.8 7.61571C34.0875 7.14355 24.0094 7.14355 24.0094 7.14355H23.9906C23.9906 7.14355 13.9125 7.14355 7.2 7.61571C6.2625 7.72467 4.21875 7.73375 2.39062 9.58607C0.946875 10.9935 0.4875 14.1987 0.4875 14.1987C0.4875 14.1987 0 17.9669 0 21.726V25.249C0 29.0082 0.478125 32.7763 0.478125 32.7763C0.478125 32.7763 0.946875 35.9816 2.38125 37.389C4.20937 39.2413 6.60938 39.1777 7.67813 39.3775C11.5219 39.7316 24 39.8406 24 39.8406C24 39.8406 34.0875 39.8224 40.8 39.3593C41.7375 39.2504 43.7812 39.2413 45.6094 37.389C47.0531 35.9816 47.5219 32.7763 47.5219 32.7763C47.5219 32.7763 48 29.0172 48 25.249V21.726C48 17.9669 47.5219 14.1987 47.5219 14.1987ZM19.0406 29.5257V16.4596L32.0062 23.0154L19.0406 29.5257Z" fill="#585858"/>
</svg>
