<svg width="32" height="32" viewBox="0 0 32 32" fill="none" xmlns="http://www.w3.org/2000/svg">
<g id="Clock_fill">
<path id="Ellipse 55" d="M7.95297 4.18173C7.04867 4.42403 6.22409 4.90011 5.5621 5.5621C4.90011 6.22409 4.42403 7.04867 4.18173 7.95297" stroke="#AC736D" stroke-width="2" stroke-linecap="round"/>
<path id="Ellipse 56" d="M24.047 4.18173C24.9513 4.42403 25.7759 4.90011 26.4379 5.5621C27.0999 6.22409 27.576 7.04867 27.8183 7.95297" stroke="#AC736D" stroke-width="2" stroke-linecap="round"/>
<path id="Subtract" fill-rule="evenodd" clip-rule="evenodd" d="M15.9997 26.6668C21.8907 26.6668 26.6663 21.8912 26.6663 16.0002C26.6663 10.1091 21.8907 5.3335 15.9997 5.3335C10.1086 5.3335 5.33301 10.1091 5.33301 16.0002C5.33301 21.8912 10.1086 26.6668 15.9997 26.6668ZM16.9997 10.6668C16.9997 10.1145 16.552 9.66683 15.9997 9.66683C15.4474 9.66683 14.9997 10.1145 14.9997 10.6668V15.7502C14.9997 16.4405 15.5593 17.0002 16.2497 17.0002H19.9997C20.552 17.0002 20.9997 16.5524 20.9997 16.0002C20.9997 15.4479 20.552 15.0002 19.9997 15.0002H16.9997V10.6668Z" fill="#AC736D"/>
</g>
</svg>
