<svg width="32" height="32" viewBox="0 0 32 32" fill="none" xmlns="http://www.w3.org/2000/svg">
<g id="Date_range_light">
<rect id="Rectangle 25" x="4" y="8" width="24" height="20" rx="2" stroke="#455273"/>
<path id="Rectangle 26" d="M4 12C4 10.1144 4 9.17157 4.58579 8.58579C5.17157 8 6.11438 8 8 8H24C25.8856 8 26.8284 8 27.4142 8.58579C28 9.17157 28 10.1144 28 12V13.3333H4V12Z" fill="#455273"/>
<path id="Line 1" d="M9.33301 4L9.33301 8" stroke="#455273" stroke-linecap="round"/>
<path id="Line 2" d="M22.667 4L22.667 8" stroke="#455273" stroke-linecap="round"/>
<rect id="Rectangle 27" x="9.33301" y="16" width="5.33333" height="2.66667" rx="0.5" fill="#455273"/>
<rect id="Rectangle 29" x="9.33301" y="21.3334" width="5.33333" height="2.66667" rx="0.5" fill="#455273"/>
<rect id="Rectangle 28" x="17.333" y="16" width="5.33333" height="2.66667" rx="0.5" fill="#455273"/>
<rect id="Rectangle 30" x="17.333" y="21.3334" width="5.33333" height="2.66667" rx="0.5" fill="#455273"/>
</g>
</svg>
