<svg width="32" height="32" viewBox="0 0 32 32" fill="none" xmlns="http://www.w3.org/2000/svg">
<g id="Pin_fill">
<path id="Subtract" fill-rule="evenodd" clip-rule="evenodd" d="M16.4028 26.4711C18.1917 25.5629 25.3337 21.5085 25.3337 14.6667C25.3337 9.51205 21.155 5.33337 16.0003 5.33337C10.8457 5.33337 6.66699 9.51205 6.66699 14.6667C6.66699 21.5085 13.8089 25.5629 15.5978 26.4711C15.8518 26.6001 16.1488 26.6001 16.4028 26.4711ZM16.0003 18.6667C18.2095 18.6667 20.0003 16.8758 20.0003 14.6667C20.0003 12.4576 18.2095 10.6667 16.0003 10.6667C13.7912 10.6667 12.0003 12.4576 12.0003 14.6667C12.0003 16.8758 13.7912 18.6667 16.0003 18.6667Z" fill="#455273"/>
</g>
</svg>
