<svg width="32" height="32" viewBox="0 0 32 32" fill="none" xmlns="http://www.w3.org/2000/svg">
<g id="Pin_fill">
<path id="Subtract" fill-rule="evenodd" clip-rule="evenodd" d="M16.4028 26.4713C18.1917 25.563 25.3337 21.5086 25.3337 14.6668C25.3337 9.51217 21.155 5.3335 16.0003 5.3335C10.8457 5.3335 6.66699 9.51217 6.66699 14.6668C6.66699 21.5086 13.8089 25.563 15.5978 26.4713C15.8518 26.6002 16.1488 26.6002 16.4028 26.4713ZM16.0003 18.6668C18.2095 18.6668 20.0003 16.876 20.0003 14.6668C20.0003 12.4577 18.2095 10.6668 16.0003 10.6668C13.7912 10.6668 12.0003 12.4577 12.0003 14.6668C12.0003 16.876 13.7912 18.6668 16.0003 18.6668Z" fill="#AC736D"/>
</g>
</svg>
