<svg width="23" height="23" viewBox="0 0 23 23" fill="none" xmlns="http://www.w3.org/2000/svg">
<g id="Send_fill">
<path id="Subtract" fill-rule="evenodd" clip-rule="evenodd" d="M9.48116 12.1048L7.60892 11.4807C5.25571 10.6963 4.0791 10.3041 4.0791 9.58335C4.0791 8.86259 5.25571 8.47039 7.60892 7.68598L15.3721 5.09826C17.0279 4.54633 17.8558 4.27036 18.2928 4.70738C18.7298 5.14439 18.4538 5.97228 17.9019 7.62805L17.9019 7.62807L17.9019 7.62808L15.3142 15.3913L15.3142 15.3913L15.3142 15.3913C14.5298 17.7445 14.1376 18.9211 13.4168 18.9211C12.6961 18.9211 12.3039 17.7445 11.5195 15.3912L10.8954 13.519L15.0823 9.33212C15.4728 8.9416 15.4728 8.30843 15.0823 7.91791C14.6917 7.52738 14.0586 7.52738 13.6681 7.91791L9.48116 12.1048Z" fill="white"/>
</g>
</svg>
