<svg width="22" height="22" viewBox="0 0 22 22" fill="none" xmlns="http://www.w3.org/2000/svg">
<path fill-rule="evenodd" clip-rule="evenodd" d="M11.621 1.73448L7.93142 1.1547C4.71084 0.648605 3.10055 0.395559 2.05027 1.29368C1 2.1918 1 3.82185 1 7.08196V10.0659H6.91938L4.21913 6.69058L5.78087 5.44119L9.78087 10.4412L10.2806 11.0659L9.78087 11.6906L5.78087 16.6906L4.21913 15.4412L6.91938 12.0659H1V15.049C1 18.3091 1 19.9391 2.05027 20.8373C3.10055 21.7354 4.71084 21.4823 7.93143 20.9762L11.621 20.3965C13.2337 20.143 14.04 20.0163 14.52 19.455C15 18.8937 15 18.0775 15 16.445V5.68599C15 4.05346 15 3.2372 14.52 2.67591C14.04 2.11462 13.2337 1.98791 11.621 1.73448Z" fill="white"/>
</svg>
