<svg width="32" height="32" viewBox="0 0 32 32" fill="blue" xmlns="http://www.w3.org/2000/svg">
<g id="Clock_fill">
<path id="Ellipse 55" d="M7.95297 4.18173C7.04867 4.42403 6.22409 4.90011 5.5621 5.5621C4.90011 6.22409 4.42403 7.04867 4.18173 7.95297" stroke="#455273" stroke-width="2" stroke-linecap="round"/>
<path id="Ellipse 56" d="M24.047 4.18173C24.9513 4.42403 25.7759 4.90011 26.4379 5.5621C27.0999 6.22409 27.576 7.04867 27.8183 7.95297" stroke="#455273" stroke-width="2" stroke-linecap="round"/>
<path id="Subtract" fill-rule="evenodd" clip-rule="evenodd" d="M15.9997 26.6667C21.8907 26.6667 26.6663 21.8911 26.6663 16C26.6663 10.109 21.8907 5.33337 15.9997 5.33337C10.1086 5.33337 5.33301 10.109 5.33301 16C5.33301 21.8911 10.1086 26.6667 15.9997 26.6667ZM16.9997 10.6667C16.9997 10.1144 16.552 9.66671 15.9997 9.66671C15.4474 9.66671 14.9997 10.1144 14.9997 10.6667V15.75C14.9997 16.4404 15.5593 17 16.2497 17H19.9997C20.552 17 20.9997 16.5523 20.9997 16C20.9997 15.4478 20.552 15 19.9997 15H16.9997V10.6667Z" fill="#455273"/>
</g>
</svg>
