<svg width="14" height="14" viewBox="0 0 14 14" fill="none" xmlns="http://www.w3.org/2000/svg">
<path id="Vector" d="M11.6667 9.89558C11.0756 9.89558 10.5467 10.1064 10.1422 10.4367L4.59667 7.52008C4.63556 7.35843 4.66667 7.19679 4.66667 7.02811C4.66667 6.85944 4.63556 6.69779 4.59667 6.53614L10.08 3.64759C10.5 3.999 11.0522 4.21687 11.6667 4.21687C12.9578 4.21687 14 3.2751 14 2.10843C14 0.941767 12.9578 0 11.6667 0C10.3756 0 9.33333 0.941767 9.33333 2.10843C9.33333 2.27711 9.36444 2.43876 9.40333 2.6004L3.92 5.48896C3.5 5.13755 2.94778 4.91968 2.33333 4.91968C1.04222 4.91968 0 5.86145 0 7.02811C0 8.19478 1.04222 9.13655 2.33333 9.13655C2.94778 9.13655 3.5 8.91867 3.92 8.56727L9.45778 11.491C9.41889 11.6386 9.39556 11.7932 9.39556 11.9478C9.39556 13.0793 10.4144 14 11.6667 14C12.9189 14 13.9378 13.0793 13.9378 11.9478C13.9378 10.8163 12.9189 9.89558 11.6667 9.89558Z" fill="#535353"/>
</svg>
