<svg width="22" height="22" viewBox="0 0 22 22" fill="none" xmlns="http://www.w3.org/2000/svg">
<g id="View_alt">
<circle id="Ellipse 65_light" cx="11.0003" cy="10.9998" r="1" stroke="#535353" stroke-width="1.66667"/>
<path id="Ellipse 66_light" d="M16.6817 10.381C16.8114 10.6311 16.8762 10.7561 16.8762 11C16.8762 11.2439 16.8114 11.3689 16.6817 11.619C16.0847 12.7702 14.4429 15.125 11.0003 15.125C7.55779 15.125 5.91593 12.7702 5.31893 11.619C5.18925 11.3689 5.1244 11.2439 5.1244 11C5.1244 10.7561 5.18925 10.6311 5.31893 10.381C5.91593 9.22976 7.55779 6.875 11.0003 6.875C14.4429 6.875 16.0847 9.22976 16.6817 10.381Z" stroke="#535353" stroke-width="2"/>
<path id="Vector" d="M15.5833 3.6665V3.6665C17.2453 3.6665 18.0763 3.6665 18.6175 4.15103C18.6695 4.19761 18.7189 4.24703 18.7655 4.29905C19.25 4.84016 19.25 5.67117 19.25 7.33317V7.33317M15.5833 18.3332V18.3332C17.2453 18.3332 18.0763 18.3332 18.6175 17.8486C18.6695 17.8021 18.7189 17.7526 18.7655 17.7006C19.25 17.1595 19.25 16.3285 19.25 14.6665V14.6665M6.41667 3.6665V3.6665C4.75466 3.6665 3.92366 3.6665 3.38255 4.15103C3.33052 4.19761 3.28111 4.24703 3.23453 4.29905C2.75 4.84016 2.75 5.67117 2.75 7.33317V7.33317M6.41667 18.3332V18.3332C4.75466 18.3332 3.92366 18.3332 3.38255 17.8486C3.33052 17.8021 3.28111 17.7526 3.23453 17.7006C2.75 17.1595 2.75 16.3285 2.75 14.6665V14.6665" stroke="#535353" stroke-width="2" stroke-linecap="round"/>
</g>
</svg>
