<svg width="54" height="41" viewBox="0 0 54 41" fill="none" xmlns="http://www.w3.org/2000/svg">
<path d="M24.1523 41C24.1523 41 20.8398 41 20.8398 37.5833C20.8398 34.1667 24.1523 23.9167 37.4023 23.9167C50.6523 23.9167 53.9648 34.1667 53.9648 37.5833C53.9648 41 50.6523 41 50.6523 41H24.1523ZM37.4023 20.5C40.0379 20.5 42.5656 19.4201 44.4292 17.4978C46.2929 15.5756 47.3398 12.9685 47.3398 10.25C47.3398 7.53153 46.2929 4.9244 44.4292 3.00216C42.5656 1.07991 40.0379 0 37.4023 0C34.7668 0 32.2391 1.07991 30.3755 3.00216C28.5118 4.9244 27.4648 7.53153 27.4648 10.25C27.4648 12.9685 28.5118 15.5756 30.3755 17.4978C32.2391 19.4201 34.7668 20.5 37.4023 20.5ZM18.2428 41C17.7518 39.9334 17.5069 38.7639 17.5273 37.5833C17.5273 32.9538 19.7798 28.1875 23.9403 24.8733C21.8637 24.2134 19.7002 23.8906 17.5273 23.9167C4.27734 23.9167 0.964844 34.1667 0.964844 37.5833C0.964844 41 4.27734 41 4.27734 41H18.2428ZM15.8711 20.5C18.0674 20.5 20.1738 19.6001 21.7268 17.9982C23.2799 16.3963 24.1523 14.2237 24.1523 11.9583C24.1523 9.69294 23.2799 7.52034 21.7268 5.91846C20.1738 4.31659 18.0674 3.41667 15.8711 3.41667C13.6748 3.41667 11.5684 4.31659 10.0154 5.91846C8.46233 7.52034 7.58984 9.69294 7.58984 11.9583C7.58984 14.2237 8.46233 16.3963 10.0154 17.9982C11.5684 19.6001 13.6748 20.5 15.8711 20.5Z" fill="#AC736D"/>
</svg>
