<svg width="30" height="29" viewBox="0 0 30 29" fill="none" xmlns="http://www.w3.org/2000/svg">
<g id="Clock_fill">
<path id="Ellipse 55" d="M7.45591 3.78969C6.60813 4.00928 5.83508 4.44072 5.21447 5.04065C4.59385 5.64058 4.14753 6.38786 3.92037 7.20737" stroke="#455273" stroke-width="2" stroke-linecap="round"/>
<path id="Ellipse 56" d="M22.5441 3.78969C23.3919 4.00928 24.1649 4.44072 24.7855 5.04065C25.4061 5.64058 25.8525 6.38786 26.0796 7.20737" stroke="#455273" stroke-width="2" stroke-linecap="round"/>
<path id="Subtract" fill-rule="evenodd" clip-rule="evenodd" d="M15 24.1667C20.5228 24.1667 25 19.8388 25 14.5C25 9.16129 20.5228 4.83337 15 4.83337C9.47715 4.83337 5 9.16129 5 14.5C5 19.8388 9.47715 24.1667 15 24.1667ZM16 9.66671C16 9.11442 15.5523 8.66671 15 8.66671C14.4477 8.66671 14 9.11442 14 9.66671V14.25C14 14.9404 14.5596 15.5 15.25 15.5H18.75C19.3023 15.5 19.75 15.0523 19.75 14.5C19.75 13.9478 19.3023 13.5 18.75 13.5H16V9.66671Z" fill="#455273"/>
</g>
</svg>
