<svg width="31" height="29" viewBox="0 0 31 29" fill="none" xmlns="http://www.w3.org/2000/svg">
<g id="Pin_fill">
<path id="Subtract" fill-rule="evenodd" clip-rule="evenodd" d="M15.8801 23.994C17.5972 23.1798 24.5413 19.5034 24.5413 13.2917C24.5413 8.6203 20.4932 4.83337 15.4997 4.83337C10.5061 4.83337 6.45801 8.6203 6.45801 13.2917C6.45801 19.5034 13.4021 23.1798 15.1192 23.994C15.3613 24.1088 15.638 24.1088 15.8801 23.994ZM15.4997 16.9167C17.6398 16.9167 19.3747 15.2937 19.3747 13.2917C19.3747 11.2897 17.6398 9.66671 15.4997 9.66671C13.3596 9.66671 11.6247 11.2897 11.6247 13.2917C11.6247 15.2937 13.3596 16.9167 15.4997 16.9167Z" fill="#455273"/>
</g>
</svg>
