<svg width="26" height="26" viewBox="0 0 26 26" fill="none" xmlns="http://www.w3.org/2000/svg">
<path d="M4.3335 9.75C4.3335 6.68587 4.3335 5.15381 5.2854 4.2019C6.2373 3.25 7.76937 3.25 10.8335 3.25H15.1668C18.231 3.25 19.763 3.25 20.7149 4.2019C21.6668 5.15381 21.6668 6.68587 21.6668 9.75V17.1466C21.6668 20.0535 21.6668 21.5069 20.7522 21.9515C19.8375 22.396 18.6947 21.4981 16.4089 19.7021L15.6774 19.1273C14.3922 18.1175 13.7495 17.6126 13.0002 17.6126C12.2508 17.6126 11.6082 18.1175 10.3229 19.1273L9.59141 19.7021C7.30567 21.4981 6.1628 22.396 5.24815 21.9515C4.3335 21.5069 4.3335 20.0535 4.3335 17.1466V9.75Z" stroke="#AC736D"/>
</svg>
