<svg width="100" height="100" viewBox="0 0 100 100" fill="none" xmlns="http://www.w3.org/2000/svg">
<rect width="100" height="100" fill="#1E1E1E"/>
<g id="organization dashboard-DASHBOARD" clip-path="url(#clip0_0_1)">
<rect width="1440" height="1155" transform="translate(-678 -214)" fill="white"/>
<g id="DASHBOARD">
<rect id="Rectangle 4234" x="-187" y="-120" width="949" height="1061" fill="#E9E9E9"/>
<g id="REVENUE">
<rect id="Rectangle 4233" x="-99" y="-14" width="761" height="127" rx="10" fill="#F8F8F8"/>
<g id="Chart_alt_fill">
<path id="Subtract" fill-rule="evenodd" clip-rule="evenodd" d="M9.21218 9.21218C8.3335 10.0909 8.3335 11.5051 8.3335 14.3335V85.6668C8.3335 88.4953 8.3335 89.9095 9.21218 90.7881C10.0909 91.6668 11.5051 91.6668 14.3335 91.6668H85.6668C88.4953 91.6668 89.9095 91.6668 90.7881 90.7881C91.6668 89.9095 91.6668 88.4952 91.6668 85.6668V14.3335C91.6668 11.5051 91.6668 10.0909 90.7881 9.21218C89.9095 8.3335 88.4952 8.3335 85.6668 8.3335H14.3335C11.5051 8.3335 10.0909 8.3335 9.21218 9.21218ZM71.6655 38.0549C71.9719 37.5953 71.8477 36.9745 71.3882 36.6681C70.9287 36.3618 70.3078 36.4859 70.0014 36.9455L54.2906 60.5117L47.4986 46.9275C46.8118 45.554 44.8974 45.4348 44.0456 46.7126L28.3348 70.2788C28.0284 70.7383 28.1526 71.3592 28.6121 71.6656C29.0717 71.9719 29.6925 71.8477 29.9989 71.3882L45.7097 47.822L52.5018 61.4061C53.1885 62.7796 55.1029 62.8988 55.9547 61.6211L71.6655 38.0549Z" fill="#AC736D"/>
</g>
</g>
</g>
</g>
<defs>
<clipPath id="clip0_0_1">
<rect width="1440" height="1155" fill="white" transform="translate(-678 -214)"/>
</clipPath>
</defs>
</svg>
