<svg width="32" height="32" viewBox="0 0 32 32" fill="none" xmlns="http://www.w3.org/2000/svg">
<g id="Pin_fill">
<path id="Subtract" fill-rule="evenodd" clip-rule="evenodd" d="M16.4025 26.4711C18.1914 25.5629 25.3333 21.5085 25.3333 14.6667C25.3333 9.51201 21.1546 5.33333 16 5.33333C10.8453 5.33333 6.66666 9.51201 6.66666 14.6667C6.66666 21.5085 13.8086 25.5629 15.5975 26.4711C15.8515 26.6 16.1485 26.6 16.4025 26.4711ZM16 18.6667C18.2091 18.6667 20 16.8758 20 14.6667C20 12.4575 18.2091 10.6667 16 10.6667C13.7909 10.6667 12 12.4575 12 14.6667C12 16.8758 13.7909 18.6667 16 18.6667Z" fill="#455273"/>
</g>
</svg>
