<svg width="55" height="55" viewBox="0 0 55 55" fill="none" xmlns="http://www.w3.org/2000/svg">
<path fill-rule="evenodd" clip-rule="evenodd" d="M21.3208 10.2341C14.2359 12.7701 9.16699 19.543 9.16699 27.4998C9.16699 28.6201 9.26748 29.717 9.45993 30.7818L25.6632 26.4402L21.3208 10.2341ZM24.219 9.45932L28.6904 26.1467L28.702 26.1901C28.752 26.3758 28.8225 26.6377 28.8535 26.8779C28.8925 27.1806 28.9017 27.6594 28.62 28.1473C28.3383 28.6352 27.9191 28.8666 27.6374 28.9842C27.414 29.0775 27.1518 29.1474 26.966 29.1969L26.9226 29.2085L10.2348 33.68C12.7709 40.7645 19.5437 45.8332 27.5003 45.8332C37.6255 45.8332 45.8337 37.6251 45.8337 27.4998C45.8337 17.3746 37.6255 9.1665 27.5003 9.1665C26.3803 9.1665 25.2836 9.26695 24.219 9.45932Z" fill="#D47151"/>
<path d="M22.086 7.29621C21.8382 6.37134 21.7143 5.9089 21.324 5.70573C20.9337 5.50256 20.5097 5.6569 19.6616 5.96559C17.4686 6.7638 15.4066 7.8937 13.5489 9.31915C11.1613 11.1512 9.15799 13.4356 7.65326 16.0418C6.14853 18.6481 5.17188 21.5252 4.77906 24.5089C4.47343 26.8305 4.5259 29.1812 4.93113 31.4794C5.08785 32.3683 5.16621 32.8127 5.53731 33.0491C5.90842 33.2855 6.37085 33.1616 7.29573 32.9138L25.5678 28.0178C26.4785 27.7738 26.9338 27.6518 27.141 27.2931C27.3481 26.9343 27.2261 26.479 26.982 25.5683L22.086 7.29621Z" fill="#D47151"/>
</svg>
