<svg width="32" height="32" viewBox="0 0 32 32" fill="none" xmlns="http://www.w3.org/2000/svg">
<g id="Clock_fill">
<path id="Ellipse 55" d="M7.95297 4.18173C7.04867 4.42403 6.22409 4.90011 5.5621 5.5621C4.90011 6.22409 4.42403 7.04867 4.18173 7.95297" stroke="#455273" stroke-width="2" stroke-linecap="round"/>
<path id="Ellipse 56" d="M24.047 4.18173C24.9513 4.42403 25.7759 4.90011 26.4379 5.5621C27.0999 6.22409 27.576 7.04867 27.8183 7.95297" stroke="#455273" stroke-width="2" stroke-linecap="round"/>
<path id="Subtract" fill-rule="evenodd" clip-rule="evenodd" d="M16 26.6667C21.891 26.6667 26.6667 21.891 26.6667 16C26.6667 10.109 21.891 5.33333 16 5.33333C10.109 5.33333 5.33334 10.109 5.33334 16C5.33334 21.891 10.109 26.6667 16 26.6667ZM17 10.6667C17 10.1144 16.5523 9.66666 16 9.66666C15.4477 9.66666 15 10.1144 15 10.6667V15.75C15 16.4403 15.5597 17 16.25 17H20C20.5523 17 21 16.5523 21 16C21 15.4477 20.5523 15 20 15H17V10.6667Z" fill="#455273"/>
</g>
</svg>
