<svg width="25" height="29" viewBox="0 0 25 29" fill="none" xmlns="http://www.w3.org/2000/svg">
<g id="Paper_fill">
<path id="Subtract" fill-rule="evenodd" clip-rule="evenodd" d="M16.7987 13.1926H21.734V8.37021C21.734 7.00738 20.6292 5.90259 19.2663 5.90259C17.9035 5.90259 16.7987 7.00738 16.7987 8.37021V13.1926ZM14.7987 13.1926L14.7006 24.7669L11.8203 23.6439L8.84187 24.8051L5.86346 23.6439L2.88504 24.8051V7.90259C2.88504 6.01697 2.88504 5.07416 3.47083 4.48837C4.05661 3.90259 4.99942 3.90259 6.88504 3.90259H16.7843C17.6115 3.90259 18.251 3.90259 18.7702 3.92982C16.5363 4.17661 14.7987 6.07049 14.7987 8.37021V13.1926ZM4.86346 8.54759C4.86346 7.99531 5.31117 7.54759 5.86346 7.54759H11.8203C12.3726 7.54759 12.8203 7.99531 12.8203 8.54759C12.8203 9.09988 12.3726 9.54759 11.8203 9.54759H5.86346C5.31117 9.54759 4.86346 9.09988 4.86346 8.54759ZM4.86346 13.1926C4.86346 12.6403 5.31117 12.1926 5.86346 12.1926H7.84907C8.40135 12.1926 8.84907 12.6403 8.84907 13.1926C8.84907 13.7449 8.40135 14.1926 7.84907 14.1926H5.86346C5.31117 14.1926 4.86346 13.7449 4.86346 13.1926ZM4.86346 17.8376C4.86346 17.2853 5.31117 16.8376 5.86346 16.8376H9.83468C10.387 16.8376 10.8347 17.2853 10.8347 17.8376C10.8347 18.3899 10.387 18.8376 9.83468 18.8376H5.86346C5.31117 18.8376 4.86346 18.3899 4.86346 17.8376Z" fill="#F9EBE9"/>
</g>
</svg>
