<svg width="37" height="37" viewBox="0 0 37 37" fill="none" xmlns="http://www.w3.org/2000/svg">
<g id="Social Icons" clip-path="url(#clip0_256_616)">
<path id="Vector" d="M32.7909 28.7668C32.2495 30.0258 31.6079 31.1851 30.8638 32.2512C29.8496 33.7046 29.0187 34.7109 28.3779 35.2702C27.3846 36.188 26.3191 36.6593 25.177 36.6886C24.357 36.6905 23.3676 36.4594 22.2154 35.9888C21.0594 35.5203 19.9975 35.2894 19.0271 35.2917C18.0094 35.294 16.9184 35.5298 15.752 36.0036C14.5839 36.4796 13.6425 36.7284 12.9224 36.7545C11.8272 36.8037 10.7343 36.324 9.64208 35.3132C8.94508 34.7082 8.07259 33.6702 7.02683 32.1993C5.90482 30.6286 4.9811 28.8064 4.25585 26.7281C3.47909 24.4833 3.08716 22.3087 3.08205 20.2025C3.07619 17.7899 3.59246 15.7079 4.63241 13.9618C5.44965 12.5593 6.53871 11.4519 7.90314 10.6377C9.26757 9.82347 10.743 9.40676 12.3328 9.37666C13.2028 9.37466 14.3443 9.64113 15.7633 10.1667C17.1783 10.6941 18.0867 10.9612 18.4847 10.9602C18.7823 10.9596 19.7899 10.6426 21.4979 10.0113C23.1131 9.42586 24.4769 9.18184 25.5949 9.27416C28.6242 9.51163 30.9026 10.7004 32.4211 12.8479C29.7163 14.4954 28.3819 16.7973 28.4158 19.7463C28.4458 22.0432 29.2837 23.9528 30.9251 25.4668C31.669 26.1695 32.4992 26.712 33.4223 27.0966C33.2238 27.677 33.014 28.233 32.7909 28.7668ZM25.7781 1.44817C25.7825 3.24858 25.1288 4.93112 23.8215 6.49009C22.2438 8.34344 20.3327 9.4167 18.257 9.25281C18.2301 9.03688 18.2142 8.80959 18.2136 8.57071C18.2094 6.84232 18.9573 4.99087 20.2898 3.47541C20.9551 2.70812 21.8019 2.06946 22.8296 1.55917C23.855 1.05647 24.8254 0.77754 25.7386 0.728056C25.7658 0.968681 25.7775 1.20936 25.7781 1.44815L25.7781 1.44817Z" fill="black"/>
</g>
<defs>
<clipPath id="clip0_256_616">
<rect width="36" height="36" fill="white" transform="matrix(0.999997 -0.00229994 0.00242687 0.999997 0.0349121 0.786743)"/>
</clipPath>
</defs>
</svg>
