<svg width="100" height="100" viewBox="0 0 100 100" fill="none" xmlns="http://www.w3.org/2000/svg">
<g id="Chart_alt_fill">
<path id="Subtract" fill-rule="evenodd" clip-rule="evenodd" d="M9.21169 9.21193C8.33301 10.0906 8.33301 11.5048 8.33301 14.3333V85.6666C8.33301 88.495 8.33301 89.9092 9.21169 90.7879C10.0904 91.6666 11.5046 91.6666 14.333 91.6666H85.6663C88.4948 91.6666 89.909 91.6666 90.7877 90.7879C91.6663 89.9092 91.6663 88.495 91.6663 85.6666V14.3333C91.6663 11.5048 91.6663 10.0906 90.7877 9.21193C89.909 8.33325 88.4948 8.33325 85.6663 8.33325H14.333C11.5046 8.33325 10.0904 8.33325 9.21169 9.21193ZM71.6651 38.0546C71.9714 37.5951 71.8472 36.9742 71.3877 36.6679C70.9282 36.3615 70.3073 36.4857 70.001 36.9452L54.2901 60.5114L47.4981 46.9273C46.8113 45.5538 44.8969 45.4346 44.0451 46.7123L28.3343 70.2786C28.0279 70.7381 28.1521 71.359 28.6116 71.6653C29.0712 71.9717 29.692 71.8475 29.9984 71.388L45.7092 47.8217L52.5013 61.4059C53.188 62.7794 55.1024 62.8986 55.9542 61.6208L71.6651 38.0546Z" fill="#4E5381"/>
</g>
</svg>
