<svg width="24" height="24" viewBox="0 0 24 24" fill="none" xmlns="http://www.w3.org/2000/svg">
<path d="M10.199 3.34523L10.1996 3.34477C11.191 2.54855 12.8013 2.5512 13.812 3.35611C13.8122 3.35626 13.8124 3.35641 13.8126 3.35656L20.3585 8.59329C20.6944 8.86808 20.9982 9.31037 21.1969 9.83023C21.3953 10.3495 21.4644 10.8823 21.3993 11.3116L20.141 18.8417C20.1409 18.8424 20.1408 18.8432 20.1406 18.8439C19.9112 20.1582 18.6198 21.25 17.3 21.25H6.69996C5.35824 21.25 4.09875 20.1864 3.86942 18.8547C3.86933 18.8542 3.86924 18.8537 3.86916 18.8532L2.60971 11.3164L2.60942 11.3147C2.5362 10.8827 2.60054 10.3494 2.79824 9.831C2.99591 9.31265 3.30325 8.87113 3.64772 8.59628L3.64903 8.59523L10.199 3.34523ZM12 19.5C12.8242 19.5 13.5 18.8242 13.5 18V15C13.5 14.1758 12.8242 13.5 12 13.5C11.1757 13.5 10.5 14.1758 10.5 15V18C10.5 18.8242 11.1757 19.5 12 19.5Z" stroke="#303644" stroke-width="1.5"/>
</svg>
