<svg width="24" height="24" viewBox="0 0 24 24" fill="none" xmlns="http://www.w3.org/2000/svg">
<path fill-rule="evenodd" clip-rule="evenodd" d="M17.2038 10.7959L18.9998 8.99994C19.545 8.45469 19.8176 8.18207 19.9634 7.88797C20.2407 7.32842 20.2407 6.67146 19.9634 6.11191C19.8176 5.81782 19.545 5.54519 18.9998 4.99994C18.4545 4.45469 18.1819 4.18207 17.8878 4.03633C17.3282 3.75905 16.6713 3.75905 16.1117 4.03633C15.8176 4.18207 15.545 4.45469 14.9998 4.99994L13.1811 6.8186C14.145 8.4692 15.5311 9.84476 17.2038 10.7959ZM11.7267 8.27305L4.85615 15.1436C4.43109 15.5686 4.21856 15.7812 4.07883 16.0422C3.93909 16.3033 3.88015 16.5981 3.76226 17.1875L3.14686 20.2645C3.08034 20.5971 3.04708 20.7634 3.14168 20.858C3.23629 20.9526 3.4026 20.9194 3.73521 20.8529L6.81219 20.2375C7.40164 20.1196 7.69637 20.0606 7.95746 19.9209C8.21856 19.7812 8.43109 19.5686 8.85615 19.1436L15.7456 12.2542C14.1239 11.2385 12.7522 9.87622 11.7267 8.27305Z" fill="#666666"/>
</svg>
