<svg width="37" height="37" viewBox="0 0 37 37" fill="none" xmlns="http://www.w3.org/2000/svg">
<g id="Social Icons" clip-path="url(#clip0_256_613)">
<path id="Vector" d="M36.4325 18.4236C36.4084 8.48252 28.33 0.442207 18.3889 0.465071C8.44776 0.487935 0.408474 8.56531 0.4326 18.5064C0.454403 27.4906 7.05476 34.9222 15.6632 36.2528L15.6327 23.6746L11.0624 23.6851L11.0498 18.482L15.6201 18.4715L15.6104 14.5059C15.5995 9.99464 18.2808 7.49659 22.3923 7.48713C24.361 7.4826 26.4224 7.82943 26.4224 7.82943L26.4331 12.2591L24.1635 12.2643C21.9275 12.2695 21.2334 13.6587 21.2369 15.0836L21.245 18.4585L26.2372 18.4471L25.4518 23.652L21.2577 23.6617L21.2882 36.2398C29.8901 34.8697 36.4543 27.4078 36.4325 18.4236Z" fill="#1877F2"/>
<path id="Vector_2" d="M25.4519 23.652L26.2373 18.4471L21.2451 18.4586L21.2369 15.0836C21.2335 13.6601 21.9276 12.2695 24.1635 12.2643L26.4332 12.2591L26.4224 7.82945C26.4224 7.82945 24.3618 7.48263 22.3923 7.48716C18.2808 7.49661 15.5995 9.99466 15.6105 14.5059L15.6201 18.4715L11.0498 18.482L11.0624 23.6851L15.6327 23.6746L15.6633 36.2528C17.5276 36.5401 19.4253 36.5357 21.2883 36.2399L21.2577 23.6617L25.4519 23.652Z" fill="white"/>
</g>
<defs>
<clipPath id="clip0_256_613">
<rect width="36" height="36" fill="white" transform="matrix(0.999997 -0.00229994 0.00242687 0.999997 0.388916 0.50647)"/>
</clipPath>
</defs>
</svg>
