<svg width="52" height="66" viewBox="0 0 52 66" fill="none" xmlns="http://www.w3.org/2000/svg">
<g id="Frame">
<path id="Vector" d="M17.5921 22.985C17.1725 23.4406 16.7063 23.8506 16.2401 24.2151L21.6946 29.5454L23 28.2698L17.5921 22.985ZM10.9254 9.54541C8.82346 9.54541 6.8076 10.3614 5.3213 11.8138C3.835 13.2663 3 15.2362 3 17.2903C3 19.3444 3.835 21.3143 5.3213 22.7667C6.8076 24.2192 8.82346 25.0352 10.9254 25.0352C13.0274 25.0352 15.0432 24.2192 16.5295 22.7667C18.0158 21.3143 18.8508 19.3444 18.8508 17.2903C18.8508 15.2362 18.0158 13.2663 16.5295 11.8138C15.0432 10.3614 13.0274 9.54541 10.9254 9.54541Z" fill="#F1F1F1"/>
</g>
</svg>
