<svg width="36" height="37" viewBox="0 0 36 37" fill="none" xmlns="http://www.w3.org/2000/svg">
<g id="Vector">
<path id="Vector_2" d="M18.4141 15.5225L18.431 22.4934L28.1182 22.4711C27.6983 24.7139 26.4263 26.6151 24.5149 27.8958L30.3677 32.4151C33.7637 29.2656 35.7162 24.6465 35.7029 19.1647C35.6998 17.8884 35.5823 16.6612 35.3666 15.4837L18.4141 15.5225Z" fill="#4285F4"/>
<path id="Vector_3" d="M8.34257 22.2444L7.02748 23.256L2.37259 26.8994C5.34865 32.7671 11.4289 36.8113 18.4652 36.7951C23.3251 36.784 27.3957 35.171 30.3673 32.4151L24.5145 27.8958C22.9135 28.9795 20.8696 29.6388 18.4479 29.6443C13.7679 29.6551 9.78402 26.5061 8.34995 22.2548L8.34257 22.2444Z" fill="#34A853"/>
<path id="Vector_4" d="M2.3336 10.765C1.11227 13.1895 0.415341 15.9239 0.42241 18.8365C0.429479 21.7492 1.13967 24.4804 2.37275 26.8993C2.37279 26.9155 8.35065 22.2382 8.35065 22.2382C7.98803 21.1591 7.77247 20.0142 7.76957 18.8195C7.76667 17.6248 7.97667 16.4789 8.33405 15.3981L2.3336 10.765Z" fill="#FBBC05"/>
<path id="Vector_5" d="M18.3956 7.96256C21.0466 7.95647 23.4051 8.86738 25.2912 10.6303L30.4332 5.46403C27.3007 2.55855 23.2383 0.78414 18.3782 0.795318C11.3419 0.811501 5.28094 4.86726 2.33343 10.765L8.3337 15.3985C9.74693 11.1406 13.7157 7.97333 18.3956 7.96256Z" fill="#EA4335"/>
</g>
</svg>
