<svg width="29" height="30" viewBox="0 0 29 30" fill="none" xmlns="http://www.w3.org/2000/svg">
<path d="M17.625 10C17.625 11.811 16.21 13.25 14.5 13.25C12.79 13.25 11.375 11.811 11.375 10C11.375 8.18896 12.79 6.75 14.5 6.75C16.21 6.75 17.625 8.18896 17.625 10Z" stroke="#AC736D" stroke-linecap="round"/>
<path d="M16.5498 8.05617C16.8013 7.60566 17.1746 7.24511 17.6205 7.01766C18.0661 6.79033 18.5655 6.70534 19.0562 6.77216C19.5469 6.839 20.0096 7.05511 20.3851 7.39582C20.7609 7.7367 21.0326 8.1872 21.1632 8.69156C21.2939 9.19601 21.2769 9.72942 21.1148 10.2236C20.9526 10.7177 20.6534 11.1483 20.2574 11.4626C19.8617 11.7767 19.3868 11.961 18.8931 11.9945C18.3994 12.0279 17.9061 11.9094 17.4753 11.6521" stroke="#AC736D"/>
<path d="M12.4502 8.05617C12.1987 7.60566 11.8254 7.24511 11.3795 7.01766C10.9339 6.79033 10.4345 6.70534 9.94385 6.77216C9.45311 6.839 8.99041 7.05511 8.61485 7.39582C8.2391 7.7367 7.96743 8.1872 7.8368 8.69156C7.70614 9.19601 7.72307 9.72942 7.88523 10.2236C8.04736 10.7177 8.34662 11.1483 8.74257 11.4626C9.1383 11.7767 9.61319 11.961 10.1069 11.9945C10.6006 12.0279 11.0939 11.9094 11.5247 11.6521" stroke="#AC736D"/>
<path d="M14.4998 15.625C19.6288 15.625 20.7995 20.0921 21.0667 22.1312C21.1384 22.6788 20.698 23.125 20.1457 23.125H8.854C8.30172 23.125 7.86127 22.6788 7.93302 22.1312C8.20021 20.0921 9.37085 15.625 14.4998 15.625Z" stroke="#AC736D" stroke-linecap="round"/>
<path d="M23.3791 19.5419L23.8676 19.4351L23.8676 19.4351L23.3791 19.5419ZM15.8135 15.7324L15.4386 15.4015L14.8457 16.0733L15.7288 16.2252L15.8135 15.7324ZM20.7607 20.625L20.2791 20.7597L20.3813 21.125H20.7607V20.625ZM18.7291 14.875C20.0676 14.875 20.9953 15.5897 21.6596 16.5683C22.3323 17.5593 22.7006 18.7791 22.8906 19.6486L23.8676 19.4351C23.6665 18.5154 23.2643 17.1517 22.487 16.0067C21.7013 14.8492 20.4996 13.875 18.7291 13.875V14.875ZM16.1883 16.0633C16.8113 15.3575 17.6267 14.875 18.7291 14.875V13.875C17.286 13.875 16.2126 14.5246 15.4386 15.4015L16.1883 16.0633ZM15.7288 16.2252C18.5594 16.7118 19.761 18.907 20.2791 20.7597L21.2422 20.4903C20.681 18.4839 19.291 15.8229 15.8982 15.2396L15.7288 16.2252ZM22.461 20.125H20.7607V21.125H22.461V20.125ZM22.8906 19.6486C22.9409 19.8785 22.769 20.125 22.461 20.125V21.125C23.3337 21.125 24.0694 20.3586 23.8676 19.4351L22.8906 19.6486Z" fill="#AC736D"/>
<path d="M13.1864 15.7324L13.2711 16.2252L14.1542 16.0733L13.5613 15.4015L13.1864 15.7324ZM5.62077 19.5419L6.10924 19.6486L5.62077 19.5419ZM8.23923 20.625V21.125H8.61858L8.72075 20.7597L8.23923 20.625ZM10.2708 14.875C11.3732 14.875 12.1886 15.3575 12.8115 16.0633L13.5613 15.4015C12.7873 14.5246 11.7139 13.875 10.2708 13.875V14.875ZM6.10924 19.6486C6.29929 18.7791 6.66754 17.5593 7.34026 16.5683C8.00456 15.5897 8.93233 14.875 10.2708 14.875V13.875C8.5003 13.875 7.29859 14.8492 6.51288 16.0066C5.7356 17.1517 5.33332 18.5154 5.1323 19.4351L6.10924 19.6486ZM6.53881 20.125C6.23082 20.125 6.05899 19.8785 6.10924 19.6486L5.1323 19.4351C4.93045 20.3586 5.66618 21.125 6.53881 21.125V20.125ZM8.23923 20.125H6.53881V21.125H8.23923V20.125ZM8.72075 20.7597C9.23888 18.907 10.4405 16.7118 13.2711 16.2252L13.1017 15.2396C9.70893 15.8229 8.31884 18.4839 7.75771 20.4903L8.72075 20.7597Z" fill="#AC736D"/>
</svg>
