<?xml version="1.0" encoding="iso-8859-1"?>
<!-- Uploaded to: SVG Repo, www.svgrepo.com, Generator: SVG Repo Mixer Tools -->
<!DOCTYPE svg PUBLIC "-//W3C//DTD SVG 1.1//EN" "http://www.w3.org/Graphics/SVG/1.1/DTD/svg11.dtd">
<svg fill="#000000" height="800px" width="800px" version="1.1" id="Capa_1" xmlns="http://www.w3.org/2000/svg" xmlns:xlink="http://www.w3.org/1999/xlink" 
	 viewBox="0 0 439.93 439.93" xml:space="preserve">
<g>
	<path d="M112.065,227.95c-18.019-12.016-42.654-10.084-58.542,5.803c-8.763,8.763-13.589,20.414-13.589,32.807
		s4.826,24.043,13.589,32.806l51.47,51.47c1.876,1.875,4.419,2.929,7.071,2.929s5.195-1.054,7.071-2.929l51.471-51.47
		c8.763-8.763,13.589-20.414,13.589-32.807s-4.826-24.043-13.589-32.807C154.72,217.867,130.082,215.932,112.065,227.95z
		 M156.464,285.224l-44.399,44.399l-44.398-44.399c-4.986-4.985-7.731-11.614-7.731-18.664s2.745-13.679,7.731-18.664
		c5.146-5.146,11.904-7.719,18.664-7.719c6.759,0,13.518,2.573,18.663,7.719c3.906,3.905,10.236,3.905,14.143,0
		c10.293-10.292,27.039-10.291,37.328,0c4.986,4.985,7.731,11.614,7.731,18.664S161.45,280.238,156.464,285.224z"/>
	<path d="M314.064,243.965h-98c-5.522,0-10,4.477-10,10s4.478,10,10,10h98c5.522,0,10-4.477,10-10S319.587,243.965,314.064,243.965z
		"/>
	<path d="M314.064,276.965h-98c-5.522,0-10,4.477-10,10s4.478,10,10,10h98c5.522,0,10-4.477,10-10S319.587,276.965,314.064,276.965z
		"/>
	<path d="M314.064,309.965h-98c-5.522,0-10,4.477-10,10s4.478,10,10,10h98c5.522,0,10-4.477,10-10S319.587,309.965,314.064,309.965z
		"/>
	<path d="M372,109.965h-98c-5.522,0-10,4.477-10,10s4.478,10,10,10h98c5.522,0,10-4.477,10-10S377.522,109.965,372,109.965z"/>
	<path d="M372,142.965h-98c-5.522,0-10,4.477-10,10s4.478,10,10,10h98c5.522,0,10-4.477,10-10S377.522,142.965,372,142.965z"/>
	<path d="M438.526,181.517l-16.965-28.553l16.966-28.562c1.87-3.148,1.87-7.066,0-10.214l-16.966-28.563l16.965-28.553
		c1.837-3.09,1.873-6.929,0.095-10.054s-5.097-5.054-8.691-5.054h-362c-5.522,0-10,4.477-10,10v124H10c-5.522,0-10,4.477-10,10v202
		c0,5.523,4.478,10,10,10h362c3.595,0,6.913-1.93,8.691-5.054c1.777-3.125,1.742-6.962-0.094-10.053l-16.967-28.563l16.967-28.563
		c1.87-3.148,1.87-7.066,0-10.214l-16.966-28.558l13.661-22.995h52.637c3.595,0,6.913-1.93,8.691-5.054
		c1.777-3.125,1.742-6.962-0.094-10.053l-16.967-28.563l16.967-28.563C440.397,188.584,440.397,184.665,438.526,181.517z
		 M343.402,292.068l16.966,28.559l-16.966,28.562c-1.87,3.148-1.87,7.066,0,10.214l11.026,18.563H20v-182h334.428l-11.025,18.557
		c-1.87,3.148-1.87,7.067,0,10.215l16.966,28.558l-16.966,28.559C341.532,285.001,341.532,288.92,343.402,292.068z M125.601,151.224
		c-4.985-4.985-7.73-11.612-7.73-18.659c0-7.061,2.744-13.689,7.73-18.669c10.291-10.292,27.037-10.292,37.328,0
		c3.906,3.904,10.236,3.904,14.143,0c4.985-4.985,11.615-7.731,18.668-7.731c7.04,0,13.669,2.748,18.664,7.736
		c4.982,4.975,7.727,11.604,7.727,18.664c0,7.047-2.745,13.674-7.731,18.659l-24.741,24.741h-39.315L125.601,151.224z
		 M401.333,158.073l16.965,28.553l-16.966,28.563c-1.87,3.148-1.87,7.066,0,10.214l11.026,18.563H378.09l-14.458-24.336
		l16.966-28.557c1.836-3.09,1.872-6.929,0.094-10.053s-5.097-5.054-8.691-5.054H217.942l10.599-10.599
		c8.763-8.763,13.589-20.412,13.589-32.801c0-12.408-4.828-24.063-13.595-32.816c-8.772-8.76-20.42-13.583-32.796-13.583
		c-9.304,0-18.188,2.719-25.747,7.78c-18.018-12.012-42.648-10.078-58.529,5.804c-8.766,8.754-13.593,20.408-13.593,32.816
		c0,12.389,4.825,24.038,13.588,32.801l10.599,10.599H77.93v-114h334.426l-11.022,18.552c-1.871,3.148-1.871,7.066-0.001,10.215
		l16.967,28.563l-16.967,28.563C399.462,151.006,399.462,154.925,401.333,158.073z"/>
</g>
</svg>