<svg width="47" height="47" viewBox="0 0 47 47" fill="none" xmlns="http://www.w3.org/2000/svg">
<g id="Pin_fill">
<path id="Subtract" fill-rule="evenodd" clip-rule="evenodd" d="M23.8796 33.0555C25.9017 32.0438 34.9657 27.0321 34.9657 18.4828C34.9657 12.141 29.8246 7 23.4828 7C17.141 7 12 12.141 12 18.4828C12 27.0321 21.064 32.0438 23.0861 33.0555C23.3408 33.183 23.6248 33.183 23.8796 33.0555ZM23.4829 23.4041C26.2008 23.4041 28.4041 21.2008 28.4041 18.4829C28.4041 15.765 26.2008 13.5617 23.4829 13.5617C20.765 13.5617 18.5617 15.765 18.5617 18.4829C18.5617 21.2008 20.765 23.4041 23.4829 23.4041Z" fill="white"/>
</g>
</svg>
