<svg width="24" height="24" viewBox="0 0 24 24" fill="none" xmlns="http://www.w3.org/2000/svg">
<g id="Send_fill">
<path id="Subtract" fill-rule="evenodd" clip-rule="evenodd" d="M9.93935 12.6465L7.69211 11.8974L7.69211 11.8974L7.6921 11.8974C5.3389 11.113 4.16229 10.7208 4.16229 10C4.16229 9.27925 5.3389 8.88704 7.69212 8.10264L16.2053 5.26491C17.8611 4.71299 18.689 4.43702 19.126 4.87404C19.563 5.31105 19.287 6.13895 18.7351 7.79474L15.8974 16.3079L15.8974 16.3079L15.8974 16.3079C15.113 18.6611 14.7208 19.8377 14 19.8377C13.2793 19.8377 12.8871 18.6611 12.1026 16.3079L11.3536 14.0607L15.7071 9.70711C16.0976 9.31659 16.0976 8.68342 15.7071 8.2929C15.3166 7.90237 14.6834 7.90237 14.2929 8.2929L9.93935 12.6465Z" fill="white"/>
</g>
</svg>
