<svg width="15" height="15" viewBox="0 0 15 15" fill="none" xmlns="http://www.w3.org/2000/svg">
<path id="Vector" d="M12.5 10.6024C11.8667 10.6024 11.3 10.8283 10.8667 11.1822L4.925 8.05723C4.96667 7.88404 5 7.71084 5 7.53012C5 7.3494 4.96667 7.1762 4.925 7.00301L10.8 3.90813C11.25 4.28464 11.8417 4.51807 12.5 4.51807C13.8833 4.51807 15 3.50904 15 2.25904C15 1.00904 13.8833 0 12.5 0C11.1167 0 10 1.00904 10 2.25904C10 2.43976 10.0333 2.61295 10.075 2.78614L4.2 5.88102C3.75 5.50452 3.15833 5.27108 2.5 5.27108C1.11667 5.27108 0 6.28012 0 7.53012C0 8.78012 1.11667 9.78916 2.5 9.78916C3.15833 9.78916 3.75 9.55572 4.2 9.17922L10.1333 12.3117C10.0917 12.4699 10.0667 12.6355 10.0667 12.8012C10.0667 14.0136 11.1583 15 12.5 15C13.8417 15 14.9333 14.0136 14.9333 12.8012C14.9333 11.5889 13.8417 10.6024 12.5 10.6024Z" fill="#535353"/>
</svg>
