<svg width="22" height="22" viewBox="0 0 22 22" fill="none" xmlns="http://www.w3.org/2000/svg">
<g id="View_alt">
<circle id="Ellipse 65_light" cx="11" cy="11" r="1" stroke="#535353" stroke-width="1.66667"/>
<path id="Ellipse 66_light" d="M16.6814 10.381C16.8111 10.6311 16.8759 10.7561 16.8759 11C16.8759 11.2439 16.8111 11.3689 16.6814 11.619C16.0844 12.7702 14.4425 15.125 11 15.125C7.55746 15.125 5.91559 12.7702 5.31859 11.619C5.18891 11.3689 5.12407 11.2439 5.12407 11C5.12407 10.7561 5.18891 10.6311 5.31859 10.381C5.91559 9.22976 7.55745 6.875 11 6.875C14.4425 6.875 16.0844 9.22976 16.6814 10.381Z" stroke="#535353" stroke-width="2"/>
<path id="Vector" d="M15.5833 3.66666V3.66666C17.2453 3.66666 18.0763 3.66666 18.6175 4.15118C18.6695 4.19777 18.7189 4.24718 18.7655 4.2992C19.25 4.84032 19.25 5.67132 19.25 7.33332V7.33332M15.5833 18.3333V18.3333C17.2453 18.3333 18.0763 18.3333 18.6175 17.8488C18.6695 17.8022 18.7189 17.7528 18.7655 17.7008C19.25 17.1597 19.25 16.3287 19.25 14.6667V14.6667M6.41667 3.66666V3.66666C4.75466 3.66666 3.92366 3.66666 3.38255 4.15118C3.33052 4.19777 3.28111 4.24718 3.23453 4.2992C2.75 4.84032 2.75 5.67132 2.75 7.33332V7.33332M6.41667 18.3333V18.3333C4.75466 18.3333 3.92366 18.3333 3.38255 17.8488C3.33052 17.8022 3.28111 17.7528 3.23453 17.7008C2.75 17.1597 2.75 16.3287 2.75 14.6667V14.6667" stroke="#535353" stroke-width="2" stroke-linecap="round"/>
</g>
</svg>
