<svg width="48" height="47" viewBox="0 0 48 47" fill="none" xmlns="http://www.w3.org/2000/svg">
<g clip-path="url(#clip0_687_2864)">
<path d="M24 4.43758C30.4125 4.43758 31.1719 4.46482 33.6938 4.57378C36.0375 4.67366 37.3031 5.05502 38.1469 5.37282C39.2625 5.7905 40.0688 6.29898 40.9031 7.1071C41.7469 7.92429 42.2625 8.69609 42.6938 9.77661C43.0219 10.5938 43.4156 11.8287 43.5188 14.0896C43.6313 16.5412 43.6594 17.2767 43.6594 23.4783C43.6594 29.689 43.6313 30.4245 43.5188 32.867C43.4156 35.137 43.0219 36.3628 42.6938 37.18C42.2625 38.2605 41.7375 39.0414 40.9031 39.8495C40.0594 40.6667 39.2625 41.1661 38.1469 41.5838C37.3031 41.9016 36.0281 42.2829 33.6938 42.3828C31.1625 42.4918 30.4031 42.519 24 42.519C17.5875 42.519 16.8281 42.4918 14.3063 42.3828C11.9625 42.2829 10.6969 41.9016 9.85313 41.5838C8.7375 41.1661 7.93125 40.6576 7.09688 39.8495C6.25313 39.0323 5.7375 38.2605 5.30625 37.18C4.97813 36.3628 4.58438 35.1279 4.48125 32.867C4.36875 30.4154 4.34063 29.6799 4.34063 23.4783C4.34063 17.2676 4.36875 16.5321 4.48125 14.0896C4.58438 11.8196 4.97813 10.5938 5.30625 9.77661C5.7375 8.69609 6.2625 7.91521 7.09688 7.1071C7.94063 6.2899 8.7375 5.7905 9.85313 5.37282C10.6969 5.05502 11.9719 4.67366 14.3063 4.57378C16.8281 4.46482 17.5875 4.43758 24 4.43758ZM24 0.251709C17.4844 0.251709 16.6688 0.278949 14.1094 0.387909C11.5594 0.496869 9.80625 0.896388 8.2875 1.46843C6.70313 2.06771 5.3625 2.85766 4.03125 4.1561C2.69063 5.44546 1.875 6.7439 1.25625 8.26933C0.665625 9.74937 0.253125 11.4382 0.140625 13.908C0.028125 16.3959 0 17.1859 0 23.4965C0 29.8071 0.028125 30.597 0.140625 33.0758C0.253125 35.5456 0.665625 37.2436 1.25625 38.7145C1.875 40.249 2.69063 41.5475 4.03125 42.8368C5.3625 44.1262 6.70313 44.9252 8.27813 45.5154C9.80625 46.0875 11.55 46.487 14.1 46.5959C16.6594 46.7049 17.475 46.7321 23.9906 46.7321C30.5063 46.7321 31.3219 46.7049 33.8813 46.5959C36.4313 46.487 38.1844 46.0875 39.7031 45.5154C41.2781 44.9252 42.6188 44.1262 43.95 42.8368C45.2813 41.5475 46.1063 40.249 46.7156 38.7236C47.3063 37.2436 47.7188 35.5547 47.8313 33.0849C47.9438 30.6061 47.9719 29.8161 47.9719 23.5055C47.9719 17.195 47.9438 16.405 47.8313 13.9262C47.7188 11.4564 47.3063 9.75845 46.7156 8.28749C46.125 6.7439 45.3094 5.44546 43.9688 4.1561C42.6375 2.86674 41.2969 2.06771 39.7219 1.47751C38.1938 0.905468 36.45 0.505948 33.9 0.396989C31.3313 0.278949 30.5156 0.251709 24 0.251709Z" fill="#585858"/>
<path d="M24 11.5563C17.1938 11.5563 11.6719 16.9044 11.6719 23.4965C11.6719 30.0885 17.1938 35.4366 24 35.4366C30.8062 35.4366 36.3281 30.0885 36.3281 23.4965C36.3281 16.9044 30.8062 11.5563 24 11.5563ZM24 31.2417C19.5844 31.2417 16.0031 27.7731 16.0031 23.4965C16.0031 19.2198 19.5844 15.7512 24 15.7512C28.4156 15.7512 31.9969 19.2198 31.9969 23.4965C31.9969 27.7731 28.4156 31.2417 24 31.2417Z" fill="#585858"/>
<path d="M39.6937 11.0841C39.6937 12.6277 38.4 13.8716 36.8156 13.8716C35.2219 13.8716 33.9375 12.6186 33.9375 11.0841C33.9375 9.54047 35.2313 8.29651 36.8156 8.29651C38.4 8.29651 39.6937 9.54955 39.6937 11.0841Z" fill="#585858"/>
</g>
<defs>
<clipPath id="clip0_687_2864">
<rect width="48" height="46.4895" fill="white" transform="translate(0 0.251709)"/>
</clipPath>
</defs>
</svg>
