<svg width="48" height="47" viewBox="0 0 48 47" fill="none" xmlns="http://www.w3.org/2000/svg">
<path fill-rule="evenodd" clip-rule="evenodd" d="M0 22.7991C0 9.84598 10.482 0.251709 24 0.251709C37.518 0.251709 48 9.85179 48 22.8049C48 35.7581 37.518 45.3523 24 45.3523C21.57 45.3523 19.242 45.0385 17.052 44.4574C16.626 44.347 16.17 44.3761 15.768 44.5504L11.004 46.5843C10.7163 46.7072 10.4018 46.7598 10.0882 46.7375C9.77453 46.7151 9.47137 46.6185 9.20533 46.4561C8.93929 46.2937 8.71852 46.0705 8.5624 45.8061C8.40628 45.5417 8.31961 45.2442 8.31 44.9398L8.178 40.8022C8.166 40.2908 7.926 39.8143 7.536 39.4772C2.868 35.4326 0 29.575 0 22.7991ZM16.638 18.5628L9.58802 29.3948C8.91002 30.435 10.23 31.6031 11.238 30.8592L18.81 25.2921C19.0592 25.1088 19.3632 25.0091 19.676 25.0081C19.9889 25.007 20.2936 25.1047 20.544 25.2863L26.154 29.36C26.5519 29.6494 27.0075 29.8558 27.4919 29.9661C27.9763 30.0764 28.4791 30.0883 28.9685 30.0009C29.4579 29.9135 29.9232 29.7288 30.3352 29.4585C30.7472 29.1881 31.0968 28.838 31.362 28.4302L38.418 17.6039C39.09 16.5637 37.77 15.3899 36.762 16.1337L29.19 21.7008C28.9409 21.8841 28.6369 21.9838 28.324 21.9848C28.0112 21.9859 27.7065 21.8882 27.456 21.7066L21.846 17.633C21.4481 17.3435 20.9926 17.1372 20.5081 17.0268C20.0237 16.9165 19.5209 16.9047 19.0316 16.9921C18.5422 17.0794 18.0768 17.2641 17.6648 17.5345C17.2529 17.8048 16.9032 18.1549 16.638 18.5628Z" fill="#585858"/>
</svg>
