<svg width="25" height="27" viewBox="0 0 25 27" fill="none" xmlns="http://www.w3.org/2000/svg">
<path fill-rule="evenodd" clip-rule="evenodd" d="M2.88477 23.186V8.09302C2.88477 6.2074 2.88477 5.26459 3.47055 4.6788C4.05634 4.09302 4.99915 4.09302 6.88476 4.09302L16.784 4.09302C17.6112 4.09302 18.2507 4.09302 18.77 4.12025C16.536 4.36704 14.7984 6.26093 14.7984 8.56065V12.579L14.7003 23.1511L11.82 22.1253L8.8416 23.186L5.86318 22.1253L2.88477 23.186ZM21.7337 12.5788H16.7984V8.56065C16.7984 7.19781 17.9032 6.09302 19.2661 6.09302C20.6289 6.09302 21.7337 7.19781 21.7337 8.56064V12.5788ZM4.86318 8.33591C4.86318 7.78363 5.3109 7.33591 5.86318 7.33591H11.82C12.3723 7.33591 12.82 7.78363 12.82 8.33591C12.82 8.8882 12.3723 9.33591 11.82 9.33591H5.86318C5.3109 9.33591 4.86318 8.8882 4.86318 8.33591ZM4.86318 12.5788C4.86318 12.0265 5.3109 11.5788 5.86318 11.5788H7.84879C8.40108 11.5788 8.84879 12.0265 8.84879 12.5788C8.84879 13.1311 8.40108 13.5788 7.84879 13.5788H5.86318C5.3109 13.5788 4.86318 13.1311 4.86318 12.5788ZM4.86318 16.8217C4.86318 16.2694 5.3109 15.8217 5.86318 15.8217H9.83441C10.3867 15.8217 10.8344 16.2694 10.8344 16.8217C10.8344 17.374 10.3867 17.8217 9.83441 17.8217H5.86318C5.3109 17.8217 4.86318 17.374 4.86318 16.8217Z" fill="#F9EBE9"/>
</svg>
