<svg width="100" height="100" viewBox="0 0 100 100" fill="none" xmlns="http://www.w3.org/2000/svg">
<rect x="17" y="27" width="59" height="46" fill="#AC736D"/>
<path fill-rule="evenodd" clip-rule="evenodd" d="M39.9296 18.2147C26.4422 22.4838 16.6665 35.1002 16.6665 49.9998C16.6665 52.4624 16.9335 54.8626 17.4402 57.173L48.1627 48.941L39.9296 18.2147ZM42.8278 17.44L51.1899 48.6475L51.2015 48.6909L51.2016 48.691C51.2515 48.8767 51.322 49.1386 51.353 49.3787C51.392 49.6814 51.4012 50.1602 51.1195 50.6481C50.8378 51.136 50.4186 51.3674 50.1369 51.485C49.9134 51.5783 49.6513 51.6482 49.4655 51.6978L49.4221 51.7094L18.215 60.0713C22.4846 73.5581 35.1007 83.3332 49.9998 83.3332C68.4093 83.3332 83.3332 68.4093 83.3332 49.9998C83.3332 31.5903 68.4093 16.6665 49.9998 16.6665C47.5377 16.6665 45.1379 16.9334 42.8278 17.44Z" fill="white"/>
<path d="M39.7337 11.6851C39.4874 10.7661 39.3643 10.3065 38.9883 10.1013C38.6123 9.89612 38.174 10.0364 37.2973 10.3171C32.7312 11.7787 28.4466 14.0191 24.6351 16.9438C20.2941 20.2748 16.6516 24.4282 13.9158 29.1668C11.1799 33.9055 9.40417 39.1366 8.68996 44.5616C8.06287 49.3248 8.26492 54.1556 9.28216 58.8407C9.47747 59.7403 9.57512 60.19 9.94083 60.413C10.3065 60.636 10.7661 60.5129 11.6851 60.2667L48.0683 50.5178C48.979 50.2738 49.4343 50.1518 49.6414 49.7931C49.8486 49.4343 49.7265 48.979 49.4825 48.0683L39.7337 11.6851Z" fill="white"/>
</svg>
