<svg width="18" height="14" viewBox="0 0 18 14" fill="none" xmlns="http://www.w3.org/2000/svg">
<path d="M16 7.16016L16.7071 7.86727L17.4142 7.16016L16.7071 6.45305L16 7.16016ZM1.00001 6.16016C0.447723 6.16016 8.58307e-06 6.60788 8.58307e-06 7.16016C8.58307e-06 7.71244 0.447723 8.16016 1.00001 8.16016L1.00001 6.16016ZM10.7071 13.8673L16.7071 7.86727L15.2929 6.45305L9.2929 12.453L10.7071 13.8673ZM16.7071 6.45305L10.7071 0.453056L9.2929 1.86727L15.2929 7.86727L16.7071 6.45305ZM16 6.16016L1.00001 6.16016L1.00001 8.16016L16 8.16016L16 6.16016Z" fill="#D47151"/>
</svg>
