<svg width="51" height="38" viewBox="0 0 51 38" fill="none" xmlns="http://www.w3.org/2000/svg">
<path id="Vector" d="M22.3125 38C22.3125 38 19.125 38 19.125 34.8333C19.125 31.6667 22.3125 22.1667 35.0625 22.1667C47.8125 22.1667 51 31.6667 51 34.8333C51 38 47.8125 38 47.8125 38H22.3125ZM35.0625 19C37.5986 19 40.0309 17.9991 41.8242 16.2175C43.6175 14.4359 44.625 12.0196 44.625 9.5C44.625 6.98044 43.6175 4.56408 41.8242 2.78249C40.0309 1.00089 37.5986 0 35.0625 0C32.5264 0 30.0941 1.00089 28.3008 2.78249C26.5075 4.56408 25.5 6.98044 25.5 9.5C25.5 12.0196 26.5075 14.4359 28.3008 16.2175C30.0941 17.9991 32.5264 19 35.0625 19ZM16.626 38C16.1535 37.0114 15.9178 35.9275 15.9375 34.8333C15.9375 30.5425 18.105 26.125 22.1085 23.0533C20.1102 22.4416 18.0283 22.1425 15.9375 22.1667C3.1875 22.1667 0 31.6667 0 34.8333C0 38 3.1875 38 3.1875 38H16.626ZM14.3438 19C16.4572 19 18.4841 18.1659 19.9785 16.6813C21.4729 15.1966 22.3125 13.183 22.3125 11.0833C22.3125 8.9837 21.4729 6.97007 19.9785 5.4854C18.4841 4.00074 16.4572 3.16667 14.3438 3.16667C12.2303 3.16667 10.2034 4.00074 8.70899 5.4854C7.21456 6.97007 6.375 8.9837 6.375 11.0833C6.375 13.183 7.21456 15.1966 8.70899 16.6813C10.2034 18.1659 12.2303 19 14.3438 19Z" fill="#AC736D"/>
</svg>
