<svg width="24" height="24" viewBox="0 0 24 24" fill="none" xmlns="http://www.w3.org/2000/svg">
<path fill-rule="evenodd" clip-rule="evenodd" d="M14.455 2.47362C13.694 2.16764 12.8647 2 11.9997 2C8.64361 2 5.82424 4.52345 5.45363 7.85899L5.20182 10.1252L5.19577 10.1793C5.08294 11.1625 4.76291 12.1106 4.25677 12.9611L4.22883 13.0077L3.65079 13.9711L3.62665 14.0114C3.38512 14.4138 3.16631 14.7785 3.02056 15.0879C2.87244 15.4024 2.71407 15.8286 2.7903 16.3117C2.86565 16.7893 3.11142 17.2233 3.48215 17.5337C3.85722 17.8476 4.3041 17.931 4.64998 17.9658C4.99036 18.0001 5.41561 18 5.88499 18L5.9319 18H18.0674L18.1143 18C18.5837 18 19.009 18.0001 19.3494 17.9658C19.6952 17.931 20.1421 17.8476 20.5172 17.5337C20.8879 17.2233 21.1337 16.7893 21.209 16.3117C21.2853 15.8286 21.1269 15.4024 20.9788 15.0879C20.833 14.7785 20.6142 14.4138 20.3727 14.0114L20.3485 13.9711L19.7705 13.0077L19.7426 12.9611C19.3638 12.3247 19.0893 11.6336 18.9278 10.914C18.6271 10.9705 18.3168 11 17.9997 11C17.6157 11 17.2418 10.9567 16.8827 10.8748C17.0673 11.9715 17.4537 13.0259 18.0239 13.9839L18.0555 14.0367L18.6336 15.0001C18.9071 15.456 19.0719 15.733 19.1694 15.9401C19.1747 15.9514 19.1796 15.9621 19.1841 15.972C19.1733 15.9733 19.1616 15.9746 19.1491 15.9759C18.9214 15.9988 18.599 16 18.0674 16H5.9319C5.4003 16 5.07793 15.9988 4.85019 15.9759C4.83773 15.9746 4.82609 15.9733 4.81522 15.972C4.81971 15.9621 4.8246 15.9514 4.82993 15.9401C4.92746 15.733 5.09228 15.456 5.36578 15.0001L5.94381 14.0367L5.97545 13.9839C6.62619 12.8904 7.03767 11.6714 7.18273 10.4073L7.18959 10.3461L7.44139 8.07985C7.69947 5.75718 9.66271 4 11.9997 4C12.4627 4 12.911 4.06898 13.3344 4.19767C13.5863 3.54594 13.9709 2.96023 14.455 2.47362ZM16.9818 4.27804C16.3939 4.62632 15.9997 5.26713 15.9997 6C15.9997 6.14503 16.0151 6.28645 16.0444 6.42272C16.1648 6.6476 16.2672 6.88404 16.3494 7.13021C16.7098 7.65547 17.3145 8 17.9997 8C18.1915 8 18.3771 7.97298 18.5528 7.92254L18.5457 7.85899C18.3935 6.48875 17.828 5.25555 16.9818 4.27804Z" fill="#33363F"/>
<path d="M9.10222 17.6647C9.27315 18.6215 9.64978 19.467 10.1737 20.0701C10.6976 20.6731 11.3396 21 12 21C12.6604 21 13.3024 20.6731 13.8263 20.0701C14.3502 19.467 14.7269 18.6215 14.8978 17.6647" stroke="#33363F" stroke-width="2" stroke-linecap="round"/>
<circle cx="18" cy="6" r="2.5" fill="#33363F" stroke="#33363F"/>
</svg>
