<svg width="27" height="27" viewBox="0 0 27 27" fill="none" xmlns="http://www.w3.org/2000/svg">
<path fill-rule="evenodd" clip-rule="evenodd" d="M13.8981 22.3051C15.4981 21.4831 21.375 18.0759 21.375 12.375C21.375 8.02576 17.8492 4.5 13.5 4.5C9.15076 4.5 5.625 8.02576 5.625 12.375C5.625 18.0759 11.5019 21.4831 13.1019 22.3051C13.3553 22.4353 13.6447 22.4353 13.8981 22.3051ZM13.5 15.75C15.364 15.75 16.875 14.239 16.875 12.375C16.875 10.511 15.364 9 13.5 9C11.636 9 10.125 10.511 10.125 12.375C10.125 14.239 11.636 15.75 13.5 15.75Z" fill="#D47151"/>
</svg>
