<svg width="21" height="20" viewBox="0 0 21 20" fill="none" xmlns="http://www.w3.org/2000/svg">
<path d="M15.6857 11.4609H15.9815C16.8372 11.4609 17.2651 11.4609 17.5471 11.2161C17.5826 11.1852 17.616 11.1519 17.6468 11.1164C17.8916 10.8343 17.8916 10.4065 17.8916 9.55075V9.55075C17.8916 7.8393 17.8916 6.98357 17.402 6.4195C17.3403 6.34841 17.2737 6.28176 17.2026 6.22005C16.6385 5.73047 15.7828 5.73047 14.0713 5.73047H6.8916C5.00598 5.73047 4.06317 5.73047 3.47739 6.31626C2.8916 6.90204 2.8916 7.84485 2.8916 9.73047V10.4609C2.8916 10.9323 2.8916 11.168 3.03805 11.3144C3.18449 11.4609 3.4202 11.4609 3.8916 11.4609H5.09748" stroke="white" stroke-width="2"/>
<path d="M5.3916 16.5016L5.3916 10.1865C5.3916 9.24365 5.3916 8.77225 5.68449 8.47935C5.97739 8.18646 6.44879 8.18646 7.3916 8.18646L13.3916 8.18646C14.3344 8.18646 14.8058 8.18646 15.0987 8.47935C15.3916 8.77225 15.3916 9.24365 15.3916 10.1865L15.3916 16.5016C15.3916 16.8165 15.3916 16.974 15.2883 17.0489C15.185 17.1238 15.0354 17.0748 14.736 16.9767L13.0472 16.4237C12.9701 16.3985 12.9315 16.3858 12.8916 16.3858C12.8517 16.3858 12.8131 16.3985 12.736 16.4237L10.5472 17.1405C10.4701 17.1657 10.4315 17.1783 10.3916 17.1783C10.3517 17.1783 10.3131 17.1657 10.236 17.1405L8.0472 16.4237C7.97006 16.3985 7.93149 16.3858 7.8916 16.3858C7.85171 16.3858 7.81314 16.3985 7.736 16.4237L6.0472 16.9767C5.74785 17.0748 5.59817 17.1238 5.49489 17.0489C5.3916 16.974 5.3916 16.8165 5.3916 16.5016Z" stroke="white" stroke-width="2"/>
<path d="M15.3916 5.73058V5.33605C15.3916 4.32796 15.3916 3.82391 15.1954 3.43887C15.0228 3.10018 14.7475 2.82482 14.4088 2.65224C14.0237 2.45605 13.5197 2.45605 12.5116 2.45605H8.2716C7.26351 2.45605 6.75946 2.45605 6.37442 2.65224C6.03573 2.82482 5.76036 3.10018 5.58779 3.43887C5.3916 3.82391 5.3916 4.32796 5.3916 5.33605V5.73058" stroke="white" stroke-width="2"/>
<path d="M8.72461 11.4609L11.2246 11.4609" stroke="white" stroke-width="2" stroke-linecap="round"/>
<path d="M8.72461 13.9165L12.4746 13.9165" stroke="white" stroke-width="2" stroke-linecap="round"/>
</svg>
