<svg width="56" height="48" viewBox="0 0 56 48" fill="none" xmlns="http://www.w3.org/2000/svg">
<g id="emojione-monotone:money-bag">
<path id="Vector" d="M10.3388 40.1956C11.1656 40.1956 11.8359 39.805 11.8359 39.3231C11.8359 38.8413 11.1656 38.4507 10.3388 38.4507C9.51204 38.4507 8.8418 38.8413 8.8418 39.3231C8.8418 39.805 9.51204 40.1956 10.3388 40.1956Z" fill="#AC736D"/>
<path id="Vector_2" d="M54.1924 34.9835L53.6304 34.7015C53.5874 34.6802 49.2931 32.5028 48.2257 29.8605L47.9877 29.2752L47.5477 29.7665C47.5339 29.7819 46.9238 30.4267 45.2162 31.1831C43.9521 25.0342 39.6518 17.6934 34.0005 14.5635C35.6161 14.6751 37.2369 14.5605 38.801 14.0744C39.7429 13.7821 39.3364 12.4705 38.3859 12.7672C37.1037 13.1659 35.8189 13.2746 34.5368 13.2188C37.6846 10.7535 40.1562 6.97516 40.1562 4.21244C40.1562 3.54856 40.1562 2.31261 39.0046 2.31261C38.5423 2.31261 38.1685 2.55936 37.652 2.90011C36.8596 3.42225 35.6634 4.21244 33.906 4.21244C33.2365 4.21244 32.0111 3.60878 31.0262 3.12409C29.836 2.5388 29.0754 2.17969 28.4361 2.17969C27.3773 2.17969 25.821 2.91113 24.4477 3.55664C23.8891 3.81881 23.1251 4.17866 22.967 4.21317C20.9767 4.21317 19.8208 3.42886 19.0543 2.90966C18.6074 2.60562 18.2834 2.38531 17.8511 2.38531C16.7185 2.38531 16.7185 3.54636 16.7185 4.891C16.7185 7.48628 19.0319 10.9121 22.0612 13.2144C20.1525 13.3312 18.2705 13.8239 16.9479 14.9189C16.2175 15.5225 17.3243 16.4802 18.0522 15.878C19.1514 14.9674 20.5925 14.5774 22.1343 14.5018C22.1781 14.6362 22.2314 14.7683 22.2967 14.8983C15.8376 18.8647 11.2494 28.283 11.2494 34.6413C11.2494 35.2684 11.3061 35.8361 11.3938 36.3707C9.72832 35.7384 9.12074 35.184 9.10871 35.1715L8.66527 34.7345L8.44699 35.2853C7.48191 37.7117 3.28645 39.8164 3.24434 39.8377L2.62988 40.1425L3.25465 40.4311C3.47379 40.5324 3.69121 40.6213 3.91035 40.7175L3.51504 40.9518L3.72387 43.1842L20.0975 46.2422L26.3057 42.8486C26.9321 42.8516 27.5664 42.853 28.2118 42.853L35.4683 46.2422L51.8729 41.8359V39.4793L51.4389 39.2568C51.6555 39.1393 51.8721 39.0196 52.0878 38.8962L52.6627 38.568L52.5364 38.5151L53.2677 38.344L53.3914 35.8941L52.9686 35.6378C53.1938 35.5225 53.4181 35.405 53.6432 35.2831L54.1924 34.9835ZM18.2817 4.891C18.2817 4.56494 18.2868 4.31084 18.2946 4.1133C18.4261 4.20142 18.579 4.29763 18.7423 4.39677C19.2433 5.42195 20.1912 6.89805 21.7982 7.82777C23.7507 8.9587 23.4912 7.65886 24.5328 6.47211C25.5743 5.28609 26.279 4.66481 28.0236 7.71541C28.7841 9.04536 30.0517 5.32869 31.2565 4.78598C31.5754 4.93433 31.8933 5.07239 32.2053 5.18989C34.3657 8.19202 35.3669 7.25569 37.2859 4.76028C37.8136 4.49591 38.2467 4.21244 38.5913 3.98552C38.593 4.05381 38.5947 4.12945 38.5947 4.21391C38.5947 6.57125 36.3406 9.95231 33.5803 12.1576C33.4499 11.8746 33.2633 11.613 33.0286 11.3843C31.9139 10.3055 30.172 11.5018 29.3461 12.2869C27.8809 11.8845 25.4936 10.7763 23.9381 11.4108C23.5507 11.5643 23.1949 11.7704 22.8845 12.021C20.3407 10.0397 18.2817 7.17931 18.2817 4.891ZM32.207 12.95C31.8217 12.8802 31.4386 12.8019 31.058 12.715C31.5375 12.3618 31.9775 12.2384 32.1623 12.7635C32.1821 12.8208 32.1941 12.8861 32.207 12.95ZM25.6757 13.4061C25.3913 13.3598 25.0991 13.318 24.7983 13.2849C24.5702 13.1627 24.347 13.0342 24.1289 12.8994C24.9143 12.4492 26.2687 12.6886 27.5629 13.0639C26.9244 13.1189 26.2945 13.2379 25.6757 13.4061ZM26.0659 15.3448C25.5846 15.4476 25.0604 15.4065 24.6075 15.2523C24.7914 15.1693 24.9771 15.0973 25.1627 15.0246C25.4635 15.1487 25.7643 15.2523 26.0659 15.3448ZM10.17 42.1143C8.12033 41.607 6.13145 40.935 4.23004 40.1072C5.39621 39.4522 7.93652 37.8681 8.96949 35.9646C9.67762 36.4398 11.3121 37.3063 14.4953 37.9717C14.4411 38.0466 14.375 38.1266 14.3114 38.2052C11.594 37.5971 10.0489 36.8282 10.0239 36.815L9.64926 36.6241L9.46965 36.967C9.23332 37.4165 8.67902 37.484 8.37051 37.484C8.28457 37.484 8.22699 37.4789 8.21926 37.4782L7.91246 37.44L7.80074 37.6911C7.57215 38.2037 6.63371 38.8735 6.28996 39.0886L5.7159 39.4485L6.37246 39.6783C6.61652 39.7635 6.68269 39.8421 6.68613 39.8627C6.69473 39.9133 6.59074 40.047 6.47988 40.1241L5.97973 40.4685L6.56152 40.6984C7.75348 41.1684 9.10355 41.5576 10.4536 41.8785C10.3462 41.9689 10.2534 42.046 10.17 42.1143ZM17.1 39.378C18.3014 39.5219 19.6326 39.613 21.0867 39.613H21.0875C21.39 39.613 21.6968 39.6086 22.0096 39.6005C22.0305 39.6559 22.0603 39.7086 22.0982 39.7569C22.1746 39.8561 22.2778 39.9383 22.4084 40.0022L20.2153 41.6039C20.1735 41.6023 20.1316 41.6016 20.0898 41.6017C19.1127 41.6017 18.3839 41.9086 18.0342 42.455C16.709 42.3106 15.3899 42.1276 14.0793 41.9064C15.1329 41.1053 16.1409 40.2615 17.1 39.378ZM7.34699 40.257C7.43293 40.1182 7.48879 39.9501 7.45871 39.7665C7.43014 39.6008 7.33722 39.4482 7.19488 39.3332C7.58074 39.0505 8.1127 38.6142 8.40488 38.1626C9.06918 38.1545 9.61746 37.9393 9.96293 37.5589C10.5447 37.8189 11.8553 38.344 13.7914 38.7993C13 39.6475 11.9335 40.6095 11.1042 41.3248C9.81168 41.0325 8.50973 40.68 7.34699 40.257ZM19.5939 43.348L19.4178 43.3488C18.6779 43.3488 16.2261 43.2973 12.9871 42.7209C13.1005 42.6386 13.2182 42.5542 13.3274 42.4734C15.9554 42.9426 18.0746 43.1439 18.2336 43.1593L18.5481 43.1879L18.6452 42.9272C18.8575 42.3647 19.6404 42.2817 20.0889 42.2817C20.2118 42.2817 20.2935 42.2883 20.3029 42.289L20.4696 42.3045L24.2793 39.5227L23.2609 39.494C22.9206 39.4837 22.7771 39.4184 22.7418 39.3736L22.9575 38.8911L22.3611 38.9124C21.9263 38.9285 21.5018 38.9366 21.0867 38.9366C19.887 38.9366 18.7732 38.8691 17.7446 38.7626L17.9835 38.5217C20.0597 38.7589 22.5459 38.905 25.5477 38.8867C24.831 39.7459 23.0435 41.5723 19.5939 43.348ZM28.2083 40.1572V41.4974C27.7193 41.4974 27.2432 41.4959 26.7775 41.493L26.6374 39.9846L25.4738 40.0654C26.2575 39.2737 26.5918 38.7457 26.6219 38.698L26.9373 38.1883L26.2713 38.1986C19.8964 38.2985 15.7388 37.6493 13.1143 36.9281C12.9226 36.2657 12.8118 35.5166 12.8118 34.642C12.8118 28.6767 17.2728 19.66 23.1956 16.0058C24.2449 16.8731 25.8364 17.2527 27.3489 16.4089C27.6807 16.2239 27.9694 15.9815 28.2401 15.7238C28.3046 15.7252 28.3707 15.7377 28.4361 15.7377C28.6526 15.7377 28.8726 15.7223 29.0918 15.6988C29.3693 15.7935 29.6409 15.889 29.8927 15.9837C31.0984 16.4376 32.1279 16.1556 32.8309 15.5299C38.2561 18.3352 42.6029 25.7561 43.7467 31.7544C41.2665 32.6019 37.3323 33.4288 31.2943 33.5742C32.4854 32.9926 33.3792 32.0144 33.0578 30.7292C32.72 29.3707 31.3914 28.9888 30.0156 28.9264C30.0121 28.2882 30.0121 27.6515 30.0173 27.0133C30.4393 27.1727 30.844 27.3563 31.2118 27.5523C31.8615 27.9012 32.4493 26.9972 31.8039 26.6483C31.2443 26.3477 30.6471 26.1016 30.0233 25.9147C30.0319 25.1759 30.0362 24.4386 30.0362 23.7013C30.0371 23.0257 28.8623 23.0257 28.8623 23.7013C28.8623 24.3497 28.8571 24.9975 28.8503 25.6444C28.225 25.5513 27.5865 25.5422 26.9579 25.6173C26.8557 25.1312 26.7319 24.6486 26.5867 24.1705C26.3925 23.5199 25.2581 23.7953 25.4549 24.4481C25.5993 24.9174 25.717 25.3845 25.8141 25.8581C25.7643 25.8743 25.7101 25.8824 25.6611 25.9015C24.0696 26.4398 23.0985 27.8123 24.2629 29.0923C24.8052 29.6886 25.5142 29.9295 26.2902 30.0096C26.3323 30.893 26.3589 31.7772 26.389 32.6599C25.8691 32.3713 25.3956 32.0012 24.9668 31.6098C24.4357 31.131 23.6064 31.8705 24.1366 32.3485C24.8576 33.0043 25.6147 33.5 26.4354 33.8173C26.4724 34.5715 26.5248 35.3279 26.6107 36.0784C26.6864 36.7445 27.862 36.7482 27.7855 36.0784C27.7131 35.4293 27.6595 34.7786 27.6248 34.1272C28.0717 34.1933 28.5409 34.2102 29.0393 34.1698C29.0952 34.8645 29.1605 35.5592 29.2533 36.254C29.3066 36.652 29.7518 36.8084 30.08 36.7276L30.007 38.1699C29.4896 38.2096 28.962 38.2463 28.412 38.2772L27.7571 38.3139L28.1061 38.7956C28.1413 38.8441 28.5375 39.3795 29.4218 40.1586H28.2083V40.1572ZM49.5964 35.3235C48.5162 35.7575 47.1498 36.1555 45.7576 36.5029C44.9017 35.7472 43.8068 34.7389 42.9896 33.8445C44.8106 33.373 45.8298 32.8868 46.2896 32.6247C46.6531 32.8986 47.1343 33.0411 47.7041 33.0403C47.8932 33.0403 48.0607 33.0249 48.1896 33.0073C48.6021 33.4641 49.2673 33.9913 49.6832 34.3064C49.4864 34.479 49.3911 34.6699 49.3988 34.8763C49.4057 35.0525 49.4882 35.2023 49.5964 35.3235ZM43.4476 37.7367C43.6229 37.8688 43.8043 38.004 43.989 38.1406C40.5051 38.93 37.9124 39.0159 37.3478 39.024C33.7401 37.1433 31.8701 35.1531 31.1491 34.2572C34.1681 34.1926 36.6637 33.959 38.7451 33.6374C38.8298 33.7262 38.9154 33.8143 39.0021 33.9017C37.3292 34.1244 35.643 34.2673 33.9515 34.3299L33.258 34.3549L33.6396 34.8535C33.6387 34.8542 33.5614 34.9776 33.0492 35.0628L32.2164 35.2016L36.3105 38.0341L36.5013 37.99C36.5056 37.9893 36.8665 37.9063 37.3031 37.9063C37.933 37.9063 38.3636 38.0701 38.5801 38.3902L38.7176 38.5929L38.9849 38.5525C40.4818 38.3193 41.9701 38.0473 43.4476 37.7367ZM31.333 35.5783L30.355 35.5328C30.3095 35.1157 30.2639 34.6985 30.2296 34.2814C30.4014 34.5252 30.7538 34.9835 31.333 35.5783ZM30.123 32.8898C30.0666 31.9012 30.0325 30.9118 30.0207 29.9222C30.1617 29.9266 30.3009 29.9376 30.4332 29.9538C31.9526 30.1506 32.3496 31.5943 31.1637 32.4066C30.8543 32.6159 30.4977 32.7693 30.123 32.8898ZM39.094 37.8483C38.709 37.4422 38.0963 37.2292 37.3039 37.2292C36.9731 37.2292 36.6818 37.2674 36.4979 37.2982L33.924 35.5159C34.138 35.4109 34.2824 35.278 34.3614 35.1149C34.3809 35.0744 34.3959 35.0323 34.4061 34.9894C36.4463 34.8939 38.165 34.7198 39.6182 34.5069C40.3229 35.1788 41.3585 36.1056 42.7318 37.1829C41.0448 37.5259 39.638 37.7609 39.094 37.8483ZM28.8451 29.9486C28.8614 31.0127 28.8924 32.0798 28.9586 33.1431C28.8477 33.1578 28.7386 33.1762 28.6294 33.1857C28.2599 33.2217 27.9093 33.1953 27.5758 33.1233C27.5337 32.0952 27.5062 31.0649 27.4607 30.036C27.923 30.0176 28.3914 29.9787 28.8451 29.9486ZM27.4014 29.0196C27.3477 28.2127 27.2588 27.4077 27.135 26.6065C27.7046 26.5396 28.2838 26.5647 28.8425 26.6806C28.8364 27.4314 28.8349 28.1822 28.8382 28.933C28.461 28.9506 28.1026 28.9814 27.7872 29.0057C27.6588 29.0142 27.5301 29.0189 27.4014 29.0196ZM26.2223 28.8911C26.1493 28.8742 26.0771 28.861 26.0023 28.8397C25.6584 28.7401 25.3471 28.5722 25.0939 28.3499C24.36 27.7646 25.3672 27.1903 26.0023 26.9178C26.102 27.5714 26.1707 28.2309 26.2223 28.8911ZM35.7072 43.1865C31.9767 41.5576 29.9752 39.7474 29.1803 38.9087C29.7518 38.872 30.2923 38.8279 30.8277 38.7817L36.9447 42.1745L50.3596 39.0255C43.4416 42.5887 36.607 43.1314 35.7072 43.1865ZM46.7863 37.3922C46.6763 37.2982 46.5448 37.1866 46.3893 37.0522C47.9155 36.6571 49.3919 36.1989 50.4928 35.6951L51.1622 35.3874L50.4833 35.0922C50.3312 35.0253 50.1825 34.9027 50.18 34.8564C50.1817 34.8388 50.2418 34.7448 50.5022 34.617L50.9989 34.3732L50.5572 34.0589C50.5435 34.0494 49.1659 33.0719 48.6821 32.4425L48.5222 32.2369L48.2481 32.3052C48.2455 32.3052 48.01 32.3632 47.7041 32.3632C47.2314 32.364 46.8774 32.2318 46.6505 31.9718L46.3996 31.6876L46.085 31.9189C46.0687 31.9307 45.095 32.6129 42.4834 33.2577C42.3974 33.1518 42.3146 33.0441 42.235 32.9346C45.4018 32.1143 47.02 31.1214 47.7213 30.578C48.8471 32.6592 51.5275 34.3358 52.6911 34.993C50.8218 35.9597 48.8436 36.7634 46.7863 37.3922Z" fill="#AC736D"/>
<path id="Vector_3" d="M39.0498 35.3124C38.193 35.1134 37.2262 35.2493 36.8876 35.6128C36.5516 35.9778 36.9761 36.4375 37.8321 36.638C38.6897 36.837 39.6557 36.7004 39.9943 36.3362C40.3303 35.9712 39.9075 35.5129 39.0498 35.3124Z" fill="#AC736D"/>
</g>
</svg>
