<svg width="54" height="45" viewBox="0 0 54 45" fill="none" xmlns="http://www.w3.org/2000/svg">
<g id="emojione:admission-tickets" clip-path="url(#clip0_1_5889)">
<path id="Vector" d="M53.9996 29.3203L53.2402 27.5625C52.6496 27.7734 51.9746 27.4922 51.8059 27C51.5527 26.5078 51.8902 25.9453 52.4809 25.8047L51.6371 23.9062C51.0465 24.1172 50.3715 23.8359 50.2027 23.3438C49.9496 22.8516 50.2871 22.2891 50.8777 22.1484L50.1184 20.3906C49.5277 20.6016 48.8527 20.3203 48.684 19.8281C48.4309 19.3359 48.7684 18.7734 49.359 18.6328L48.5996 16.875C48.009 17.0156 47.4184 16.8047 47.1652 16.3828C44.8871 16.5937 42.609 15.5391 41.8496 13.6406L10.2934 23.0625C11.2215 25.2422 9.87148 27.6328 7.25586 28.4766L13.4152 42.4688C16.0309 41.6953 18.8996 42.8203 19.9121 45L51.384 35.4375C50.5402 33.5391 51.4684 31.5 53.409 30.4453C53.1559 30.0234 53.409 29.4609 53.9996 29.3203Z" fill="#AC736D"/>
<path id="Vector_2" d="M47.7564 32.8359L20.5876 41.0624C19.1533 41.4843 17.5501 40.8515 16.9595 39.6562L12.1501 28.6171C11.6439 27.4218 12.4033 26.0859 13.8376 25.5937L41.0064 17.3671C42.4408 16.9453 44.0439 17.5781 44.6345 18.7734L49.4439 29.8124C49.9501 31.0781 49.1908 32.414 47.7564 32.8359ZM14.3439 26.789C13.5845 26.9999 13.247 27.7031 13.5001 28.2656L18.3095 39.3046C18.5626 39.9374 19.4064 40.2187 20.0814 40.0078L47.2501 31.7812C48.0095 31.5703 48.347 30.8671 48.0939 30.3046L43.2845 19.2656C43.0314 18.6328 42.1876 18.3515 41.5126 18.5624L14.3439 26.789Z" fill="#DBDBDB"/>
<path id="Vector_3" d="M26.0715 30.3047L25.3121 30.5156C25.2277 30.5156 25.1434 30.5156 25.1434 30.4453L24.7215 29.7422L24.2152 29.8828L24.4684 30.6562C24.4684 30.7266 24.4684 30.7969 24.384 30.7969L23.6246 31.0078C23.5402 31.0078 23.5402 31.0078 23.4559 30.9375L22.0215 26.0859C22.0215 26.0156 22.0215 25.9453 22.1059 25.9453L23.2027 25.5938C23.2871 25.5938 23.3715 25.5937 23.3715 25.6641L26.0715 30.1641C26.1559 30.2344 26.1559 30.3047 26.0715 30.3047ZM24.2996 28.9688L23.2871 27.1406H23.2027L23.8777 29.0391L24.2996 28.9688ZM27.6746 26.0859L28.6871 28.4766C28.8559 28.9687 28.6027 29.4609 28.0121 29.6719L26.7465 30.0234C26.6621 30.0234 26.5777 30.0234 26.5777 29.9531L24.8902 26.0156C24.8902 25.9453 24.8902 25.875 24.9746 25.875L26.2402 25.5234C26.8309 25.3828 27.5059 25.5937 27.6746 26.0859ZM26.7465 26.4375C26.7465 26.3672 26.5777 26.2969 26.4934 26.2969L26.1559 26.3672L27.3371 29.0391L27.5902 28.9688C27.6746 28.9688 27.759 28.8281 27.6746 28.7578L26.7465 26.4375ZM31.2184 24.1172L32.9902 28.0547C32.9902 28.125 32.9902 28.1953 32.9059 28.1953L32.1465 28.4063C32.0621 28.4063 31.9777 28.4062 31.9777 28.3359L31.134 26.5078L31.3027 28.3359C31.3027 28.4062 31.2184 28.4062 31.2184 28.3359L29.9527 26.8594L30.7965 28.6875C30.7965 28.7578 30.7965 28.8281 30.7121 28.8281L29.9527 29.0391C29.8684 29.0391 29.784 29.0391 29.784 28.9688L28.0121 25.0312C28.0121 24.9609 28.0121 24.8906 28.0965 24.8906L28.7715 24.6797C28.8559 24.6797 28.9402 24.6797 28.9402 24.75L30.5434 26.7187L30.2902 24.3984C30.2902 24.3281 30.2902 24.2578 30.3746 24.2578L31.0496 24.0469C31.134 24.0469 31.2184 24.0469 31.2184 24.1172ZM34.6777 27.5625C34.6777 27.6328 34.6777 27.7031 34.5934 27.7031L33.834 27.9141C33.7496 27.9141 33.6652 27.9141 33.6652 27.8437L31.9777 23.9062C31.9777 23.8359 31.9777 23.7656 32.0621 23.7656L32.8215 23.5547C32.9059 23.5547 32.9902 23.5547 32.9902 23.625L34.6777 27.5625ZM35.9434 22.7109L36.1965 23.3438C36.1965 23.4141 36.1965 23.4844 36.1121 23.4844L35.5215 23.6953L36.9559 26.9297C36.9559 27 36.9559 27.0703 36.8715 27.0703L36.1121 27.2812C36.0277 27.2812 35.9434 27.2812 35.9434 27.2109L34.5934 23.9062L34.0027 24.1172C33.9184 24.1172 33.834 24.1172 33.834 24.0469L33.5809 23.4141C33.5809 23.3437 33.5809 23.2734 33.6652 23.2734L35.7746 22.6406C35.859 22.6406 35.9434 22.6406 35.9434 22.7109ZM30.1215 35.3672L29.784 35.4375C29.1934 35.5781 28.6027 35.3672 28.3496 34.875L26.9996 31.6406C26.8309 31.1484 27.084 30.6562 27.6746 30.4453L28.0121 30.375C28.6027 30.2344 29.1934 30.4453 29.4465 30.9375L30.8809 34.1719C31.0496 34.5937 30.7121 35.1562 30.1215 35.3672ZM28.1809 31.1484C28.0121 31.2187 27.9277 31.2891 28.0121 31.4297L29.3621 34.5938C29.3621 34.6641 29.5309 34.7344 29.6152 34.6641H29.6996C29.784 34.6641 29.8684 34.5234 29.8684 34.4531L28.5184 31.2891C28.434 31.1484 28.2652 31.1484 28.1809 31.1484ZM32.7371 29.8828L34.509 33.8203C34.509 33.8906 34.509 33.9609 34.4246 33.9609L33.9184 34.1016C33.834 34.1016 33.7496 34.1016 33.7496 34.0313L32.0621 32.4844L32.8215 34.3125C32.8215 34.3828 32.8215 34.4531 32.7371 34.4531L31.9777 34.6641C31.8934 34.6641 31.809 34.6641 31.809 34.5938L30.0371 30.6562C30.0371 30.5859 30.0371 30.5156 30.1215 30.5156L30.7121 30.375C30.7965 30.375 30.8809 30.375 30.8809 30.4453L32.6527 32.2031L31.809 30.1641C31.809 30.0938 31.809 30.0234 31.8934 30.0234L32.6527 29.8125C32.6527 29.8125 32.7371 29.8125 32.7371 29.8828ZM36.9559 32.4141L37.209 33.0469C37.209 33.1172 37.209 33.1875 37.1246 33.1875L35.3527 33.75C35.2684 33.75 35.184 33.75 35.184 33.6797L33.4121 29.7422C33.4121 29.6719 33.4121 29.6016 33.4965 29.6016L35.2684 29.0391C35.3527 29.0391 35.4371 29.0391 35.4371 29.1094L35.6902 29.7422C35.6902 29.8125 35.6902 29.8828 35.6059 29.8828L34.6777 30.1641L35.0152 30.9375L35.859 30.6562C35.9434 30.6562 36.0277 30.6562 36.0277 30.7266L36.2809 31.3594C36.2809 31.4297 36.2809 31.5 36.1965 31.5L35.3527 31.7812L35.7746 32.6953L36.7027 32.4141C36.8715 32.3437 36.9559 32.3437 36.9559 32.4141Z" fill="#89664C"/>
<g id="Group" opacity="0.5">
<path id="Vector_4" d="M21.4309 38.5312L47.0809 20.6016C45.8152 19.3359 45.6465 17.7188 46.3215 16.3125C44.2965 16.2422 42.5246 15.1875 41.7652 13.5703L10.2934 23.0625C11.2215 25.2422 9.87148 27.6328 7.25586 28.4766L9.19648 32.9766L14.259 38.0391C16.4527 36.4922 19.5746 36.7734 21.4309 38.5312Z" fill="#947151"/>
<path id="Vector_5" opacity="0.5" d="M21.4309 38.5312L47.0809 20.6016C45.8152 19.3359 45.6465 17.7188 46.3215 16.3125C44.2965 16.2422 42.5246 15.1875 41.7652 13.5703L10.2934 23.0625C11.2215 25.2422 9.87148 27.6328 7.25586 28.4766L9.19648 32.9766L14.259 38.0391C16.4527 36.4922 19.5746 36.7734 21.4309 38.5312Z" fill="#947151"/>
</g>
<path id="Vector_6" d="M44.2969 11.3203L42.8625 9.84375C42.3563 10.1953 41.6813 10.125 41.2594 9.70312C40.8375 9.28125 40.9219 8.71875 41.4281 8.36719L39.9938 6.89062C39.4875 7.24219 38.8125 7.17187 38.3906 6.75C37.9688 6.32812 38.0531 5.76562 38.5594 5.41406L37.125 3.9375C36.6188 4.28906 35.9437 4.21875 35.5219 3.79687C34.9312 3.51562 35.0156 2.95312 35.4375 2.60156L34.0031 1.125C33.4969 1.47656 32.8219 1.40625 32.4 1.05469C30.375 1.89844 27.8438 1.54687 26.2406 0L0.590625 17.9297C2.44688 19.7578 2.10938 22.4297 0 23.9062L11.475 35.3672C13.5844 33.8906 16.7906 34.1016 18.5625 35.8594L44.2125 17.9297C42.6938 16.3828 42.6938 14.2031 44.0438 12.6562C43.7906 12.2344 43.875 11.6719 44.2969 11.3203Z" fill="#AC736D"/>
<path id="Vector_7" d="M39.8254 16.4529L17.7191 31.9217C16.5379 32.7654 14.766 32.6248 13.7535 31.6404L4.72537 22.6404C3.71287 21.6561 3.88162 20.1795 5.06287 19.3358L27.1691 3.86701C28.3504 3.02326 30.1223 3.16389 31.1348 4.14826L40.1629 13.1483C41.1754 14.1326 41.0066 15.6092 39.8254 16.4529ZM5.991 20.2498C5.40037 20.6717 5.316 21.3748 5.82225 21.867L14.8504 30.9373C15.3566 31.4295 16.2004 31.4998 16.791 31.0779L38.8973 15.6092C39.4879 15.1873 39.5723 14.4842 39.066 13.992L30.0379 4.9217C29.5316 4.42951 28.6879 4.3592 28.0973 4.78107L5.991 20.2498Z" fill="#DBDBDB"/>
<path id="Vector_8" d="M18.4781 20.25L17.8875 20.6719C17.8031 20.7422 17.7188 20.6719 17.7188 20.6719L17.0438 20.1094L16.5375 20.3906L17.1281 21.0234V21.1641L16.5375 21.5859C16.4531 21.6563 16.4531 21.5859 16.3687 21.5859L13.0781 17.4375V17.2969L14.0063 16.6641C14.0906 16.5938 14.175 16.5938 14.175 16.6641L18.4781 20.1094V20.25ZM16.2844 19.4766L14.5969 18L14.5125 18.0703L15.9469 19.6875L16.2844 19.4766ZM18.225 15.8203L20.1656 17.7891C20.5875 18.2109 20.5031 18.7734 19.9969 19.125L18.9844 19.8281C18.9 19.8984 18.8156 19.8281 18.8156 19.8281L15.525 16.5938C15.4406 16.5234 15.525 16.4531 15.525 16.4531L16.5375 15.75C17.1281 15.3984 17.8031 15.3984 18.225 15.8203ZM17.4656 16.3828C17.3813 16.3125 17.2125 16.3125 17.1281 16.3828L16.875 16.5234L19.0688 18.7031L19.3219 18.5625C19.4062 18.4922 19.4062 18.4219 19.3219 18.2812L17.4656 16.3828ZM20.7563 12.9375L24.0469 16.1719C24.1313 16.2422 24.0469 16.3125 24.0469 16.3125L23.3719 16.7344C23.2875 16.8047 23.2031 16.7344 23.2031 16.7344L21.6844 15.2578L22.6125 16.9453C22.6125 17.0156 22.6125 17.0156 22.5281 17.0156L20.7563 15.9609L22.275 17.4375C22.3594 17.5078 22.275 17.5781 22.275 17.5781L21.6 18C21.5156 18.0703 21.4312 18 21.4312 18L18.1406 14.7656C18.0563 14.6953 18.1406 14.625 18.1406 14.625L18.7313 14.2031C18.8156 14.1328 18.9 14.2031 18.9 14.2031L21.1781 15.5391L19.9969 13.4297V13.2891L20.5875 12.8672C20.6719 12.9375 20.7563 12.9375 20.7563 12.9375ZM25.4813 15.1875C25.5656 15.2578 25.4813 15.3281 25.4813 15.3281L24.8906 15.75C24.8062 15.8203 24.7219 15.75 24.7219 15.75L21.4312 12.5156C21.3469 12.4453 21.4312 12.375 21.4312 12.375L22.0219 11.9531C22.1063 11.8828 22.1906 11.9531 22.1906 11.9531L25.4813 15.1875ZM24.6375 10.2656L25.1437 10.7578C25.2281 10.8281 25.1437 10.8984 25.1437 10.8984L24.6375 11.25L27.3375 13.9219C27.4219 13.9922 27.3375 14.0625 27.3375 14.0625L26.7469 14.4844H26.5781L23.8781 11.8125L23.3719 12.1641C23.2875 12.2344 23.2031 12.1641 23.2031 12.1641L22.6969 11.6719C22.6125 11.6016 22.6969 11.5312 22.6969 11.5312L24.4688 10.3359C24.4688 10.2656 24.5531 10.2656 24.6375 10.2656ZM24.3844 23.8359L24.1313 24.0469C23.625 24.3984 22.95 24.3281 22.5281 23.9063L19.9125 21.3047C19.4906 20.8828 19.575 20.3203 20.0812 19.9688L20.3344 19.7578C20.8406 19.4063 21.5156 19.4766 21.9375 19.8984L24.4688 22.5C24.8906 22.9219 24.8062 23.4844 24.3844 23.8359ZM20.7563 20.4609C20.5875 20.5313 20.5875 20.6719 20.6719 20.7422L23.2875 23.2734C23.3719 23.3438 23.4563 23.3438 23.625 23.2734L23.7094 23.2031C23.7938 23.1328 23.7938 22.9922 23.7094 22.9219L21.0938 20.4609C21.0094 20.3906 20.8406 20.3906 20.7563 20.4609ZM24.5531 17.9297L27.8438 21.1641C27.9281 21.2344 27.8438 21.3047 27.8438 21.3047L27.4219 21.5859C27.3375 21.6563 27.2531 21.6563 27.2531 21.5859L25.0594 20.6016L26.5781 22.0781C26.6625 22.1484 26.5781 22.2188 26.5781 22.2188L25.9875 22.6406C25.9031 22.7109 25.8188 22.6406 25.8188 22.6406L22.5281 19.4063C22.4438 19.3359 22.5281 19.2656 22.5281 19.2656L22.95 18.9844C23.0344 18.9141 23.1187 18.9141 23.1187 18.9844L25.4813 20.1094L23.7938 18.4922C23.7094 18.4219 23.7938 18.3516 23.7938 18.3516L24.3844 17.9297H24.5531ZM29.5312 19.125L30.0375 19.6172C30.1219 19.6875 30.0375 19.7578 30.0375 19.7578L28.6031 20.8125C28.5188 20.8828 28.4344 20.8125 28.4344 20.8125L25.1437 17.5781C25.0594 17.5078 25.1437 17.4375 25.1437 17.4375L26.5781 16.3828C26.6625 16.3125 26.7469 16.3828 26.7469 16.3828L27.2531 16.875C27.3375 16.9453 27.2531 17.0156 27.2531 17.0156L26.4937 17.5781L27.1688 18.2109L27.8438 17.7188C27.9281 17.6484 28.0125 17.7188 28.0125 17.7188L28.5187 18.2109C28.6031 18.2812 28.5187 18.3516 28.5187 18.3516L27.8438 18.8438L28.6031 19.6172L29.3625 19.0547C29.4469 19.0547 29.5312 19.0547 29.5312 19.125Z" fill="#89664C"/>
</g>
<defs>
<clipPath id="clip0_1_5889">
<rect width="54" height="45" fill="white"/>
</clipPath>
</defs>
</svg>
