<?xml version="1.0" ?>
<!-- Uploaded to: SVG Repo, www.svgrepo.com, Generator: SVG Repo Mixer Tools -->
<svg width="800px" height="800px" viewBox="0 0 24 24" version="1.1" xml:space="preserve" xmlns="http://www.w3.org/2000/svg" xmlns:xlink="http://www.w3.org/1999/xlink">
<style type="text/css">
	.st0{display:none;}
	.st1{display:inline;}
	.st2{opacity:0.2;fill:none;stroke:#000000;stroke-width:5.000000e-02;stroke-miterlimit:10;}
</style>
<g class="st0" id="grid_system"/>
<g id="_icons">
<path d="M14,10h-1V9c0-0.6-0.4-1-1-1s-1,0.4-1,1v1h-1c-0.6,0-1,0.4-1,1s0.4,1,1,1h1v1c0,0.6,0.4,1,1,1s1-0.4,1-1v-1h1   c0.6,0,1-0.4,1-1S14.6,10,14,10z"/>
<path d="M19,3h-1H6H5C4.4,3,4,3.4,4,4s0.4,1,1,1v14.1c0,0.7,0.4,1.4,1.1,1.8c0.3,0.2,0.6,0.2,0.9,0.2c0.4,0,0.8-0.1,1.1-0.3   l3.9-2.6l3.9,2.6c0.6,0.4,1.4,0.5,2.1,0.1c0.7-0.3,1.1-1,1.1-1.8V5c0.6,0,1-0.4,1-1S19.6,3,19,3z M17,19.1C17,19.1,17,19.1,17,19.1   l-3.9-2.6c-0.3-0.2-0.7-0.3-1.1-0.3s-0.8,0.1-1.1,0.3L7,19.1V5h10L17,19.1L17,19.1z"/>
</g>
</svg>